Newsreader-CaptionExtraBold.ufo
<glyph name="quotesingle" format="2">
  <advance width="588.0"/>
  <unicode hex="0027"/>
  <outline>
    <contour>
      <point x="163.0" y="800.0" type="line"/>
      <point x="425.0" y="800.0" type="line"/>
      <point x="490.0" y="1336.0" type="line"/>
      <point x="490.0" y="1414.0" type="line"/>
      <point x="98.0" y="1414.0" type="line"/>
      <point x="98.0" y="1336.0" type="line"/>
    </contour>
  </outline>
</glyph>
<glyph name="comma" format="2">
  <advance width="673.0"/>
  <unicode hex="002C"/>
  <outline>
    <contour>
      <point x="58.0" y="-271.0" type="curve"/>
      <point x="151.0" y="-405.0" type="line"/>
      <point x="505.0" y="-186.0"/>
      <point x="576.0" y="-45.0"/>
      <point x="576.0" y="185.0" type="curve" smooth="yes"/>
      <point x="576.0" y="346.0"/>
      <point x="493.0" y="437.0"/>
      <point x="328.0" y="437.0" type="curve" smooth="yes"/>
      <point x="178.0" y="437.0"/>
      <point x="80.0" y="346.0"/>
      <point x="80.0" y="207.0" type="curve" smooth="yes"/>
      <point x="80.0" y="148.0"/>
      <point x="263.0" y="106.0"/>
      <point x="263.0" y="-22.0" type="curve" smooth="yes"/>
      <point x="263.0" y="-114.0"/>
      <point x="202.0" y="-172.0"/>
    </contour>
  </outline>
</glyph>
<glyph name="period" format="2">
  <advance width="672.0"/>
  <unicode hex="002E"/>
  <outline>
    <contour>
      <point x="336.0" y="460.0" type="curve" smooth="yes"/>
      <point x="184.0" y="460.0"/>
      <point x="88.0" y="365.0"/>
      <point x="88.0" y="215.0" type="curve" smooth="yes"/>
      <point x="88.0" y="65.0"/>
      <point x="184.0" y="-30.0"/>
      <point x="336.0" y="-30.0" type="curve" smooth="yes"/>
      <point x="488.0" y="-30.0"/>
      <point x="584.0" y="65.0"/>
      <point x="584.0" y="215.0" type="curve" smooth="yes"/>
      <point x="584.0" y="365.0"/>
      <point x="488.0" y="460.0"/>
    </contour>
  </outline>
</glyph>
<glyph name="semicolon" format="2">
  <advance width="711.0"/>
  <unicode hex="003B"/>
  <outline>
    <contour>
      <point x="81.0" y="-271.0" type="curve"/>
      <point x="174.0" y="-405.0" type="line"/>
      <point x="528.0" y="-186.0"/>
      <point x="599.0" y="-45.0"/>
      <point x="599.0" y="185.0" type="curve" smooth="yes"/>
      <point x="599.0" y="346.0"/>
      <point x="516.0" y="437.0"/>
      <point x="351.0" y="437.0" type="curve" smooth="yes"/>
      <point x="201.0" y="437.0"/>
      <point x="103.0" y="346.0"/>
      <point x="103.0" y="207.0" type="curve" smooth="yes"/>
      <point x="103.0" y="148.0"/>
      <point x="286.0" y="106.0"/>
      <point x="286.0" y="-22.0" type="curve" smooth="yes"/>
      <point x="286.0" y="-114.0"/>
      <point x="225.0" y="-172.0"/>
    </contour>
    <contour>
      <point x="351.0" y="1074.0" type="curve" smooth="yes"/>
      <point x="199.0" y="1074.0"/>
      <point x="103.0" y="984.0"/>
      <point x="103.0" y="841.0" type="curve" smooth="yes"/>
      <point x="103.0" y="697.0"/>
      <point x="199.0" y="607.0"/>
      <point x="351.0" y="607.0" type="curve" smooth="yes"/>
      <point x="503.0" y="607.0"/>
      <point x="599.0" y="697.0"/>
      <point x="599.0" y="841.0" type="curve" smooth="yes"/>
      <point x="599.0" y="984.0"/>
      <point x="503.0" y="1074.0"/>
    </contour>
  </outline>
</glyph>
<glyph name="less" format="2">
  <advance width="1140.0"/>
  <unicode hex="003C"/>
  <outline>
    <contour>
      <point x="244.0" y="444.0" type="line"/>
      <point x="1033.0" y="789.0" type="line"/>
      <point x="1033.0" y="1074.0" type="line"/>
      <point x="88.0" y="649.0" type="line"/>
      <point x="88.0" y="394.0" type="line"/>
      <point x="1033.0" y="-30.0" type="line"/>
      <point x="1033.0" y="262.0" type="line"/>
      <point x="244.0" y="606.0" type="line"/>
    </contour>
  </outline>
</glyph>
<glyph name="greater" format="2">
  <advance width="1140.0"/>
  <unicode hex="003E"/>
  <outline>
    <contour>
      <point x="896.0" y="444.0" type="line"/>
      <point x="896.0" y="606.0" type="line"/>
      <point x="107.0" y="262.0" type="line"/>
      <point x="107.0" y="-30.0" type="line"/>
      <point x="1052.0" y="394.0" type="line"/>
      <point x="1052.0" y="649.0" type="line"/>
      <point x="107.0" y="1074.0" type="line"/>
      <point x="107.0" y="789.0" type="line"/>
    </contour>
  </outline>
</glyph>
<glyph name="question" format="2">
  <advance width="1536.0"/>
  <unicode hex="003F"/>
  <outline>
    <contour>
      <point x="724.0" y="1444.0" type="curve" smooth="yes"/>
      <point x="215.0" y="1444.0"/>
      <point x="56.0" y="1329.0"/>
      <point x="56.0" y="1156.0" type="curve" smooth="yes"/>
      <point x="56.0" y="1049.0"/>
      <point x="139.0" y="977.0"/>
      <point x="264.0" y="977.0" type="curve" smooth="yes"/>
      <point x="339.0" y="977.0"/>
      <point x="444.0" y="1173.0"/>
      <point x="652.0" y="1173.0" type="curve" smooth="yes"/>
      <point x="844.0" y="1173.0"/>
      <point x="909.0" y="1101.0"/>
      <point x="909.0" y="1018.0" type="curve" smooth="yes"/>
      <point x="909.0" y="880.0"/>
      <point x="833.0" y="842.0"/>
      <point x="523.0" y="858.0" type="curve"/>
      <point x="583.0" y="524.0" type="line"/>
      <point x="910.0" y="524.0" type="line"/>
      <point x="968.0" y="718.0" type="line"/>
      <point x="861.0" y="624.0" type="line"/>
      <point x="1307.0" y="642.0"/>
      <point x="1454.0" y="772.0"/>
      <point x="1454.0" y="1031.0" type="curve" smooth="yes"/>
      <point x="1454.0" y="1253.0"/>
      <point x="1285.0" y="1444.0"/>
    </contour>
    <contour>
      <point x="734.0" y="408.0" type="curve" smooth="yes"/>
      <point x="569.0" y="408.0"/>
      <point x="477.0" y="331.0"/>
      <point x="477.0" y="193.0" type="curve" smooth="yes"/>
      <point x="477.0" y="50.0"/>
      <point x="569.0" y="-30.0"/>
      <point x="734.0" y="-30.0" type="curve" smooth="yes"/>
      <point x="899.0" y="-30.0"/>
      <point x="991.0" y="50.0"/>
      <point x="991.0" y="193.0" type="curve" smooth="yes"/>
      <point x="991.0" y="331.0"/>
      <point x="899.0" y="408.0"/>
    </contour>
  </outline>
</glyph>
<glyph name="at" format="2">
  <advance width="1932.0"/>
  <unicode hex="0040"/>
  <outline>
    <contour>
      <point x="1393.0" y="141.0" type="curve" smooth="yes"/>
      <point x="1709.0" y="141.0"/>
      <point x="1882.0" y="376.0"/>
      <point x="1882.0" y="760.0" type="curve" smooth="yes"/>
      <point x="1882.0" y="1189.0"/>
      <point x="1587.0" y="1444.0"/>
      <point x="1099.0" y="1444.0" type="curve" smooth="yes"/>
      <point x="467.0" y="1444.0"/>
      <point x="80.0" y="1089.0"/>
      <point x="80.0" y="491.0" type="curve" smooth="yes"/>
      <point x="80.0" y="-26.0"/>
      <point x="381.0" y="-272.0"/>
      <point x="970.0" y="-272.0" type="curve" smooth="yes"/>
      <point x="1229.0" y="-272.0"/>
      <point x="1448.0" y="-214.0"/>
      <point x="1664.0" y="-94.0" type="curve"/>
      <point x="1613.0" y="8.0" type="line"/>
      <point x="1412.0" y="-98.0"/>
      <point x="1196.0" y="-151.0"/>
      <point x="1017.0" y="-151.0" type="curve" smooth="yes"/>
      <point x="490.0" y="-151.0"/>
      <point x="230.0" y="53.0"/>
      <point x="230.0" y="510.0" type="curve" smooth="yes"/>
      <point x="230.0" y="1022.0"/>
      <point x="562.0" y="1332.0"/>
      <point x="1090.0" y="1332.0" type="curve" smooth="yes"/>
      <point x="1523.0" y="1332.0"/>
      <point x="1742.0" y="1125.0"/>
      <point x="1742.0" y="731.0" type="curve" smooth="yes"/>
      <point x="1742.0" y="493.0"/>
      <point x="1631.0" y="303.0"/>
      <point x="1480.0" y="303.0" type="curve" smooth="yes"/>
      <point x="1407.0" y="303.0"/>
      <point x="1374.0" y="327.0"/>
      <point x="1371.0" y="388.0" type="curve" smooth="yes"/>
      <point x="1369.0" y="422.0"/>
      <point x="1374.0" y="461.0"/>
      <point x="1392.0" y="519.0" type="curve" smooth="yes"/>
      <point x="1538.0" y="1024.0" type="line"/>
      <point x="1249.0" y="1024.0" type="line"/>
      <point x="1129.0" y="851.0" type="line"/>
      <point x="1083.0" y="733.0" type="line" smooth="yes"/>
      <point x="1010.0" y="536.0"/>
      <point x="923.0" y="405.0"/>
      <point x="857.0" y="405.0" type="curve" smooth="yes"/>
      <point x="827.0" y="405.0"/>
      <point x="808.0" y="423.0"/>
      <point x="806.0" y="455.0" type="curve" smooth="yes"/>
      <point x="797.0" y="601.0"/>
      <point x="957.0" y="846.0"/>
      <point x="1061.0" y="846.0" type="curve" smooth="yes"/>
      <point x="1111.0" y="846.0"/>
      <point x="1125.0" y="824.0"/>
      <point x="1152.0" y="758.0" type="curve"/>
      <point x="1174.0" y="801.0" type="line"/>
      <point x="1127.0" y="967.0"/>
      <point x="1048.0" y="1047.0"/>
      <point x="931.0" y="1047.0" type="curve" smooth="yes"/>
      <point x="666.0" y="1048.0"/>
      <point x="393.0" y="706.0"/>
      <point x="411.0" y="398.0" type="curve" smooth="yes"/>
      <point x="420.0" y="255.0"/>
      <point x="525.0" y="157.0"/>
      <point x="670.0" y="157.0" type="curve" smooth="yes"/>
      <point x="830.0" y="157.0"/>
      <point x="912.0" y="238.0"/>
      <point x="1071.0" y="532.0" type="curve"/>
      <point x="1099.0" y="532.0" type="line"/>
      <point x="1082.0" y="483.0" type="line" smooth="yes"/>
      <point x="1069.0" y="440.0"/>
      <point x="1061.0" y="399.0"/>
      <point x="1063.0" y="361.0" type="curve" smooth="yes"/>
      <point x="1072.0" y="222.0"/>
      <point x="1194.0" y="141.0"/>
    </contour>
  </outline>
</glyph>
<glyph name="A" format="2">
  <advance width="1961.0"/>
  <unicode hex="0041"/>
  <anchor x="962.0" y="1414" name="UCtop"/>
  <anchor x="872.0" y="0" name="bottom"/>
  <anchor x="1692.0" y="0" name="right"/>
  <outline>
    <contour>
      <point x="450.0" y="368.0" type="line"/>
      <point x="1206.0" y="368.0" type="line"/>
      <point x="1206.0" y="634.0" type="line"/>
      <point x="450.0" y="634.0" type="line"/>
    </contour>
    <contour>
      <point x="1767.0" y="189.0" type="line"/>
      <point x="1297.0" y="1414.0" type="line"/>
      <point x="658.0" y="1414.0" type="line"/>
      <point x="180.0" y="169.0" type="line"/>
      <point x="12.0" y="136.0" type="line"/>
      <point x="12.0" y="0.0" type="line"/>
      <point x="663.0" y="0.0" type="line"/>
      <point x="663.0" y="136.0" type="line"/>
      <point x="506.0" y="175.0" type="line"/>
      <point x="866.0" y="1204.0" type="line"/>
      <point x="831.0" y="1204.0" type="line"/>
      <point x="1199.0" y="169.0" type="line"/>
      <point x="1039.0" y="136.0" type="line"/>
      <point x="1039.0" y="0.0" type="line"/>
      <point x="1952.0" y="0.0" type="line"/>
      <point x="1952.0" y="136.0" type="line"/>
    </contour>
  </outline>
</glyph>
<glyph name="B" format="2">
  <advance width="1774.0"/>
  <unicode hex="0042"/>
  <anchor x="921.0" y="1414" name="UCtop"/>
  <anchor x="921.0" y="0" name="bottom"/>
  <outline>
    <contour>
      <point x="547.0" y="1157.0" type="line"/>
      <point x="937.0" y="1157.0" type="line" smooth="yes"/>
      <point x="1048.0" y="1157.0"/>
      <point x="1079.0" y="1110.0"/>
      <point x="1079.0" y="1007.0" type="curve" smooth="yes"/>
      <point x="1079.0" y="890.0"/>
      <point x="1036.0" y="846.0"/>
      <point x="949.0" y="846.0" type="curve" smooth="yes"/>
      <point x="547.0" y="846.0" type="line"/>
      <point x="547.0" y="628.0" type="line"/>
      <point x="953.0" y="628.0" type="line" smooth="yes"/>
      <point x="1087.0" y="628.0"/>
      <point x="1133.0" y="562.0"/>
      <point x="1133.0" y="449.0" type="curve" smooth="yes"/>
      <point x="1133.0" y="299.0"/>
      <point x="1080.0" y="257.0"/>
      <point x="947.0" y="257.0" type="curve" smooth="yes"/>
      <point x="547.0" y="257.0" type="line"/>
      <point x="547.0" y="0.0" type="line"/>
      <point x="1114.0" y="0.0" type="line" smooth="yes"/>
      <point x="1530.0" y="0.0"/>
      <point x="1688.0" y="146.0"/>
      <point x="1688.0" y="391.0" type="curve" smooth="yes"/>
      <point x="1688.0" y="614.0"/>
      <point x="1538.0" y="761.0"/>
      <point x="1268.0" y="774.0" type="curve"/>
      <point x="1268.0" y="755.0" type="line"/>
      <point x="1494.0" y="773.0"/>
      <point x="1615.0" y="891.0"/>
      <point x="1615.0" y="1081.0" type="curve" smooth="yes"/>
      <point x="1615.0" y="1282.0"/>
      <point x="1488.0" y="1414.0"/>
      <point x="1129.0" y="1414.0" type="curve" smooth="yes"/>
      <point x="547.0" y="1414.0" type="line"/>
    </contour>
    <contour>
      <point x="94.0" y="0.0" type="line"/>
      <point x="800.0" y="0.0" type="line"/>
      <point x="800.0" y="1414.0" type="line"/>
      <point x="94.0" y="1414.0" type="line"/>
      <point x="94.0" y="1278.0" type="line"/>
      <point x="262.0" y="1229.0" type="line"/>
      <point x="262.0" y="185.0" type="line"/>
      <point x="94.0" y="136.0" type="line"/>
    </contour>
  </outline>
</glyph>
<glyph name="I" format="2">
  <advance width="1062.0"/>
  <unicode hex="0049"/>
  <anchor x="531.0" y="1414" name="UCtop"/>
  <anchor x="731.0" y="0" name="right"/>
  <anchor x="531.0" y="0" name="bottom"/>
  <outline>
    <contour>
      <point x="968.0" y="136.0" type="line"/>
      <point x="800.0" y="185.0" type="line"/>
      <point x="800.0" y="1229.0" type="line"/>
      <point x="968.0" y="1278.0" type="line"/>
      <point x="968.0" y="1414.0" type="line"/>
      <point x="94.0" y="1414.0" type="line"/>
      <point x="94.0" y="1278.0" type="line"/>
      <point x="262.0" y="1229.0" type="line"/>
      <point x="262.0" y="185.0" type="line"/>
      <point x="94.0" y="136.0" type="line"/>
      <point x="94.0" y="0.0" type="line"/>
      <point x="968.0" y="0.0" type="line"/>
    </contour>
  </outline>
</glyph>
<glyph name="L" format="2">
  <advance width="1615.0"/>
  <unicode hex="004C"/>
  <anchor x="531.0" y="1414" name="UCtop"/>
  <anchor x="981.0" y="1414" name="right"/>
  <anchor x="817.0" y="0" name="bottom"/>
  <anchor x="1351.0" y="854.0" name="mid"/>
  <outline>
    <contour>
      <point x="1459.0" y="-103.0" type="line"/>
      <point x="1581.0" y="603.0" type="line"/>
      <point x="1366.0" y="603.0" type="line"/>
      <point x="1103.0" y="148.0" type="line"/>
      <point x="1266.0" y="294.0" type="line"/>
      <point x="560.0" y="294.0" type="line"/>
      <point x="547.0" y="0.0" type="line"/>
      <point x="1191.0" y="0.0" type="line"/>
      <point x="1295.0" y="-103.0" type="line"/>
    </contour>
    <contour>
      <point x="800.0" y="1229.0" type="line"/>
      <point x="968.0" y="1278.0" type="line"/>
      <point x="968.0" y="1414.0" type="line"/>
      <point x="94.0" y="1414.0" type="line"/>
      <point x="94.0" y="1278.0" type="line"/>
      <point x="262.0" y="1229.0" type="line"/>
      <point x="262.0" y="185.0" type="line"/>
      <point x="94.0" y="136.0" type="line"/>
      <point x="94.0" y="0.0" type="line"/>
      <point x="800.0" y="0.0" type="line"/>
    </contour>
  </outline>
</glyph>
<glyph name="N" format="2">
  <advance width="1929.0"/>
  <unicode hex="004E"/>
  <anchor x="998.0" y="1414" name="UCtop"/>
  <anchor x="1018.0" y="0" name="bottom"/>
  <outline>
    <contour>
      <point x="268.0" y="183.0" type="line"/>
      <point x="100.0" y="136.0" type="line"/>
      <point x="100.0" y="0.0" type="line"/>
      <point x="720.0" y="0.0" type="line"/>
      <point x="720.0" y="136.0" type="line"/>
      <point x="552.0" y="183.0" type="line"/>
      <point x="552.0" y="1298.0" type="line"/>
      <point x="412.0" y="1260.0" type="line"/>
      <point x="1082.0" y="0.0" type="line"/>
      <point x="1688.0" y="0.0" type="line"/>
      <point x="1688.0" y="1231.0" type="line"/>
      <point x="1856.0" y="1278.0" type="line"/>
      <point x="1856.0" y="1414.0" type="line"/>
      <point x="1236.0" y="1414.0" type="line"/>
      <point x="1236.0" y="1278.0" type="line"/>
      <point x="1404.0" y="1231.0" type="line"/>
      <point x="1404.0" y="242.0" type="line"/>
      <point x="1455.0" y="411.0" type="line"/>
      <point x="917.0" y="1414.0" type="line"/>
      <point x="80.0" y="1414.0" type="line"/>
      <point x="80.0" y="1278.0" type="line"/>
      <point x="268.0" y="1211.0" type="line"/>
    </contour>
  </outline>
</glyph>
<glyph name="P" format="2">
  <advance width="1698.0"/>
  <unicode hex="0050"/>
  <anchor x="868.0" y="1414" name="UCtop"/>
  <anchor x="531.0" y="0" name="bottom"/>
  <outline>
    <contour>
      <point x="1125.0" y="940.0" type="curve" smooth="yes"/>
      <point x="1125.0" y="812.0"/>
      <point x="1077.0" y="759.0"/>
      <point x="961.0" y="759.0" type="curve" smooth="yes"/>
      <point x="670.0" y="759.0" type="line"/>
      <point x="475.0" y="479.0" type="line"/>
      <point x="1077.0" y="479.0" type="line" smooth="yes"/>
      <point x="1483.0" y="479.0"/>
      <point x="1642.0" y="668.0"/>
      <point x="1642.0" y="940.0" type="curve" smooth="yes"/>
      <point x="1642.0" y="1237.0"/>
      <point x="1463.0" y="1414.0"/>
      <point x="1041.0" y="1414.0" type="curve" smooth="yes"/>
      <point x="508.0" y="1414.0" type="line"/>
      <point x="670.0" y="1120.0" type="line"/>
      <point x="985.0" y="1120.0" type="line" smooth="yes"/>
      <point x="1089.0" y="1120.0"/>
      <point x="1125.0" y="1060.0"/>
    </contour>
    <contour>
      <point x="800.0" y="1414.0" type="line"/>
      <point x="94.0" y="1414.0" type="line"/>
      <point x="94.0" y="1278.0" type="line"/>
      <point x="262.0" y="1229.0" type="line"/>
      <point x="262.0" y="185.0" type="line"/>
      <point x="94.0" y="136.0" type="line"/>
      <point x="94.0" y="0.0" type="line"/>
      <point x="968.0" y="0.0" type="line"/>
      <point x="968.0" y="136.0" type="line"/>
      <point x="800.0" y="185.0" type="line"/>
    </contour>
  </outline>
</glyph>
<glyph name="X" format="2">
  <advance width="1964"/>
  <unicode hex="0058"/>
  <anchor x="991.0" y="1414" name="UCtop"/>
  <anchor x="991.0" y="0" name="bottom"/>
  <outline>
    <contour>
      <point x="855" y="610" type="line"/>
      <point x="1292" y="579" type="line"/>
      <point x="1729" y="1228" type="line"/>
      <point x="1870" y="1278" type="line"/>
      <point x="1870" y="1414" type="line"/>
      <point x="1261" y="1414" type="line"/>
      <point x="1261" y="1278" type="line"/>
      <point x="1384" y="1238" type="line"/>
      <point x="1126" y="811" type="line"/>
      <point x="653" y="831" type="line"/>
      <point x="192" y="186" type="line"/>
      <point x="51" y="136" type="line"/>
      <point x="51" y="0" type="line"/>
      <point x="713" y="0" type="line"/>
      <point x="713" y="136" type="line"/>
      <point x="570" y="176" type="line"/>
    </contour>
    <contour>
      <point x="1094" y="186" type="line"/>
      <point x="958" y="136" type="line"/>
      <point x="958" y="0" type="line"/>
      <point x="1958" y="0" type="line"/>
      <point x="1958" y="136" type="line"/>
      <point x="1792" y="194" type="line"/>
      <point x="1293" y="793" type="line"/>
      <point x="1230" y="868" type="line"/>
      <point x="929" y="1228" type="line"/>
      <point x="1065" y="1278" type="line"/>
      <point x="1065" y="1414" type="line"/>
      <point x="65" y="1414" type="line"/>
      <point x="65" y="1278" type="line"/>
      <point x="231" y="1220" type="line"/>
      <point x="656" y="711" type="line"/>
      <point x="714" y="641" type="line"/>
    </contour>
  </outline>
</glyph>
<glyph name="Y" format="2">
  <advance width="1814.0"/>
  <unicode hex="0059"/>
  <anchor x="1034.0" y="1414" name="UCtop"/>
  <anchor x="929.0" y="0" name="bottom"/>
  <outline>
    <contour>
      <point x="157.0" y="1239.0" type="line"/>
      <point x="660.0" y="600.0" type="line"/>
      <point x="660.0" y="185.0" type="line"/>
      <point x="492.0" y="136.0" type="line"/>
      <point x="492.0" y="0.0" type="line"/>
      <point x="1366.0" y="0.0" type="line"/>
      <point x="1366.0" y="136.0" type="line"/>
      <point x="1198.0" y="185.0" type="line"/>
      <point x="1198.0" y="602.0" type="line"/>
      <point x="1649.0" y="1239.0" type="line"/>
      <point x="1783.0" y="1278.0" type="line"/>
      <point x="1783.0" y="1414.0" type="line"/>
      <point x="1198.0" y="1414.0" type="line"/>
      <point x="1198.0" y="1278.0" type="line"/>
      <point x="1328.0" y="1239.0" type="line"/>
      <point x="982.0" y="732.0" type="line"/>
      <point x="1169.0" y="740.0" type="line"/>
      <point x="799.0" y="1239.0" type="line"/>
      <point x="932.0" y="1278.0" type="line"/>
      <point x="932.0" y="1414.0" type="line"/>
      <point x="5.0" y="1414.0" type="line"/>
      <point x="5.0" y="1278.0" type="line"/>
    </contour>
  </outline>
</glyph>
<glyph name="Z" format="2">
  <advance width="1636"/>
  <unicode hex="005A"/>
  <anchor x="870.0" y="1414" name="UCtop"/>
  <anchor x="760.0" y="0" name="bottom"/>
  <outline>
    <contour>
      <point x="1468.0" y="1414.0" type="line"/>
      <point x="388.0" y="1414.0" type="line"/>
      <point x="260.0" y="1505.0" type="line"/>
      <point x="126.0" y="1505.0" type="line"/>
      <point x="126.0" y="864.0" type="line"/>
      <point x="288.0" y="864.0" type="line"/>
      <point x="405.0" y="1120.0" type="line"/>
      <point x="1280.0" y="1120.0" type="line"/>
      <point x="939.0" y="1280.0" type="line"/>
      <point x="135.0" y="274.0" type="line"/>
      <point x="135.0" y="0.0" type="line"/>
      <point x="1214.0" y="0.0" type="line"/>
      <point x="1311.0" y="-104.0" type="line"/>
      <point x="1466.0" y="-104.0" type="line"/>
      <point x="1574.0" y="599.0" type="line"/>
      <point x="1409.0" y="599.0" type="line"/>
      <point x="1196.0" y="294.0" type="line"/>
      <point x="379.0" y="294.0" type="line"/>
      <point x="656.0" y="133.0" type="line"/>
      <point x="1468.0" y="1141.0" type="line"/>
    </contour>
  </outline>
</glyph>
<glyph name="bracketleft" format="2">
  <advance width="923.0"/>
  <unicode hex="005B"/>
  <outline>
    <contour>
      <point x="184.0" y="-217.0" type="line"/>
      <point x="864.0" y="-217.0" type="line"/>
      <point x="864.0" y="0.0" type="line"/>
      <point x="544.0" y="0.0" type="line"/>
      <point x="544.0" y="1247.0" type="line"/>
      <point x="864.0" y="1247.0" type="line"/>
      <point x="864.0" y="1464.0" type="line"/>
      <point x="184.0" y="1464.0" type="line"/>
    </contour>
  </outline>
</glyph>
<glyph name="bracketright" format="2">
  <advance width="923.0"/>
  <unicode hex="005D"/>
  <outline>
    <contour>
      <point x="739.0" y="1464.0" type="line"/>
      <point x="59.0" y="1464.0" type="line"/>
      <point x="59.0" y="1247.0" type="line"/>
      <point x="379.0" y="1247.0" type="line"/>
      <point x="379.0" y="0.0" type="line"/>
      <point x="59.0" y="0.0" type="line"/>
      <point x="59.0" y="-217.0" type="line"/>
      <point x="739.0" y="-217.0" type="line"/>
    </contour>
  </outline>
</glyph>
<glyph name="e" format="2">
  <advance width="1282.0"/>
  <unicode hex="0065"/>
  <anchor x="661.0" y="1044.0" name="top"/>
  <anchor x="1174.0" y="0" name="right"/>
  <anchor x="661.0" y="0" name="bottom"/>
  <outline>
    <contour>
      <point x="665.0" y="1074.0" type="curve" smooth="yes"/>
      <point x="279.0" y="1074.0"/>
      <point x="77.0" y="856.0"/>
      <point x="77.0" y="504.0" type="curve" smooth="yes"/>
      <point x="77.0" y="154.0"/>
      <point x="288.0" y="-30.0"/>
      <point x="673.0" y="-30.0" type="curve" smooth="yes"/>
      <point x="798.0" y="-30.0"/>
      <point x="942.0" y="19.0"/>
      <point x="1174.0" y="168.0" type="curve"/>
      <point x="1174.0" y="309.0" type="line"/>
      <point x="1064.0" y="289.0"/>
      <point x="957.0" y="280.0"/>
      <point x="815.0" y="280.0" type="curve" smooth="yes"/>
      <point x="578.0" y="280.0"/>
      <point x="507.0" y="347.0"/>
      <point x="507.0" y="612.0" type="curve" smooth="yes"/>
      <point x="507.0" y="803.0"/>
      <point x="542.0" y="849.0"/>
      <point x="638.0" y="849.0" type="curve" smooth="yes"/>
      <point x="742.0" y="849.0"/>
      <point x="782.0" y="813.0"/>
      <point x="774.0" y="565.0" type="curve"/>
      <point x="858.0" y="643.0" type="line"/>
      <point x="391.0" y="643.0" type="line"/>
      <point x="391.0" y="483.0" type="line"/>
      <point x="1211.0" y="483.0" type="line"/>
      <point x="1192.0" y="919.0"/>
      <point x="1028.0" y="1074.0"/>
    </contour>
  </outline>
</glyph>
<glyph name="m" format="2">
  <advance width="2256"/>
  <unicode hex="006D"/>
  <anchor x="1149.0" y="1044.0" name="top"/>
  <anchor x="1149.0" y="0" name="bottom"/>
  <outline>
    <contour>
      <point x="691.0" y="824.0" type="line"/>
      <point x="567.0" y="1074.0" type="line"/>
      <point x="475.0" y="1074.0" type="line"/>
      <point x="61.0" y="948.0" type="line"/>
      <point x="61.0" y="844.0" type="line"/>
      <point x="152.0" y="755.9545454545455"/>
      <point x="193.0" y="716.2857142857143"/>
      <point x="215.0" y="695.0" type="curve"/>
      <point x="215.0" y="152.0" type="line"/>
      <point x="93.0" y="119.0" type="line"/>
      <point x="93.0" y="0.0" type="line"/>
      <point x="745.0" y="0.0" type="line"/>
      <point x="745.0" y="119.0" type="line"/>
      <point x="691.0" y="138.0" type="line"/>
    </contour>
    <contour>
      <point x="1387.0" y="771.0" type="line" smooth="yes"/>
      <point x="1387.0" y="962.0"/>
      <point x="1276.0" y="1074.0"/>
      <point x="1045.0" y="1074.0" type="curve" smooth="yes"/>
      <point x="945.0" y="1074.0"/>
      <point x="926.0" y="1067.0"/>
      <point x="626.0" y="831.0" type="curve"/>
      <point x="645.0" y="714.0" type="line"/>
      <point x="703.0" y="724.0"/>
      <point x="758.0" y="730.0"/>
      <point x="803.0" y="730.0" type="curve" smooth="yes"/>
      <point x="888.0" y="730.0"/>
      <point x="911.0" y="698.0"/>
      <point x="911.0" y="641.0" type="curve" smooth="yes"/>
      <point x="911.0" y="138.0" type="line"/>
      <point x="857.0" y="119.0" type="line"/>
      <point x="857.0" y="0.0" type="line"/>
      <point x="1441.0" y="0.0" type="line"/>
      <point x="1441.0" y="119.0" type="line"/>
      <point x="1387.0" y="138.0" type="line"/>
    </contour>
    <contour>
      <point x="2083.0" y="770.0" type="line" smooth="yes"/>
      <point x="2083.0" y="962.0"/>
      <point x="1971.0" y="1074.0"/>
      <point x="1740.0" y="1074.0" type="curve" smooth="yes"/>
      <point x="1639.0" y="1074.0"/>
      <point x="1621.0" y="1067.0"/>
      <point x="1320.0" y="830.0" type="curve"/>
      <point x="1339.0" y="714.0" type="line"/>
      <point x="1397.0" y="724.0"/>
      <point x="1454.0" y="730.0"/>
      <point x="1498.0" y="730.0" type="curve" smooth="yes"/>
      <point x="1583.0" y="730.0"/>
      <point x="1607.0" y="699.0"/>
      <point x="1607.0" y="641.0" type="curve" smooth="yes"/>
      <point x="1607.0" y="138.0" type="line"/>
      <point x="1553.0" y="119.0" type="line"/>
      <point x="1553.0" y="0.0" type="line"/>
      <point x="2205.0" y="0.0" type="line"/>
      <point x="2205.0" y="119.0" type="line"/>
      <point x="2083.0" y="152.0" type="line"/>
    </contour>
  </outline>
</glyph>
<glyph name="s" format="2">
  <advance width="1221.0"/>
  <unicode hex="0073"/>
  <anchor x="598.0" y="1044.0" name="top"/>
  <anchor x="618.0" y="0" name="bottom"/>
  <outline>
    <contour>
      <point x="675.0" y="1074.0" type="curve" smooth="yes"/>
      <point x="282.0" y="1074.0"/>
      <point x="89.0" y="950.0"/>
      <point x="89.0" y="706.0" type="curve" smooth="yes"/>
      <point x="89.0" y="559.0"/>
      <point x="141.0" y="455.0"/>
      <point x="392.0" y="409.0" type="curve" smooth="yes"/>
      <point x="643.0" y="363.0"/>
      <point x="696.0" y="350.0"/>
      <point x="696.0" y="267.0" type="curve" smooth="yes"/>
      <point x="696.0" y="201.0"/>
      <point x="652.0" y="167.0"/>
      <point x="486.0" y="167.0" type="curve" smooth="yes"/>
      <point x="402.0" y="167.0"/>
      <point x="284.0" y="177.0"/>
      <point x="230.0" y="188.0" type="curve"/>
      <point x="407.0" y="55.0" type="line"/>
      <point x="224.0" y="324.0" type="line"/>
      <point x="86.0" y="324.0" type="line"/>
      <point x="136.0" y="0.0" type="line"/>
      <point x="230.0" y="-16.0"/>
      <point x="394.0" y="-30.0"/>
      <point x="560.0" y="-30.0" type="curve" smooth="yes"/>
      <point x="983.0" y="-30.0"/>
      <point x="1150.0" y="116.0"/>
      <point x="1150.0" y="343.0" type="curve" smooth="yes"/>
      <point x="1150.0" y="545.0"/>
      <point x="1049.0" y="637.0"/>
      <point x="793.0" y="676.0" type="curve" smooth="yes"/>
      <point x="537.0" y="715.0"/>
      <point x="514.0" y="741.0"/>
      <point x="514.0" y="802.0" type="curve" smooth="yes"/>
      <point x="514.0" y="860.0"/>
      <point x="559.0" y="887.0"/>
      <point x="684.0" y="887.0" type="curve" smooth="yes"/>
      <point x="731.0" y="887.0"/>
      <point x="822.0" y="876.0"/>
      <point x="902.0" y="856.0" type="curve"/>
      <point x="754.0" y="997.0" type="line"/>
      <point x="913.0" y="759.0" type="line"/>
      <point x="1066.0" y="759.0" type="line"/>
      <point x="1038.0" y="1044.0" type="line"/>
      <point x="935.0" y="1066.0"/>
      <point x="825.0" y="1074.0"/>
    </contour>
  </outline>
</glyph>
<glyph name="braceright" format="2">
  <advance width="873"/>
  <unicode hex="007D"/>
  <outline>
    <contour>
      <point x="816.0" y="720.0" type="line"/>
      <point x="741.0" y="723.0" type="line" smooth="yes"/>
      <point x="643.0" y="727.0"/>
      <point x="609.0" y="757.0"/>
      <point x="609.0" y="838.0" type="curve" smooth="yes"/>
      <point x="609.0" y="938.0"/>
      <point x="666.0" y="1057.0"/>
      <point x="666.0" y="1199.0" type="curve" smooth="yes"/>
      <point x="666.0" y="1338.0"/>
      <point x="549.0" y="1463.0"/>
      <point x="308.0" y="1479.0" type="curve" smooth="yes"/>
      <point x="86.0" y="1494.0" type="line"/>
      <point x="66.0" y="1285.0" type="line"/>
      <point x="161.0" y="1272.0" type="line" smooth="yes"/>
      <point x="243.0" y="1261.0"/>
      <point x="266.0" y="1224.0"/>
      <point x="266.0" y="1142.0" type="curve" smooth="yes"/>
      <point x="266.0" y="1046.0"/>
      <point x="259.0" y="954.0"/>
      <point x="259.0" y="885.0" type="curve" smooth="yes"/>
      <point x="259.0" y="730.0"/>
      <point x="350.0" y="637.0"/>
      <point x="588.0" y="583.0" type="curve"/>
      <point x="588.0" y="663.0" type="line"/>
      <point x="350.0" y="609.0"/>
      <point x="259.0" y="516.0"/>
      <point x="259.0" y="361.0" type="curve" smooth="yes"/>
      <point x="259.0" y="292.0"/>
      <point x="266.0" y="200.0"/>
      <point x="266.0" y="104.0" type="curve" smooth="yes"/>
      <point x="266.0" y="22.0"/>
      <point x="243.0" y="-15.0"/>
      <point x="161.0" y="-26.0" type="curve" smooth="yes"/>
      <point x="66.0" y="-39.0" type="line"/>
      <point x="86.0" y="-248.0" type="line"/>
      <point x="308.0" y="-233.0" type="line" smooth="yes"/>
      <point x="549.0" y="-217.0"/>
      <point x="666.0" y="-92.0"/>
      <point x="666.0" y="47.0" type="curve" smooth="yes"/>
      <point x="666.0" y="189.0"/>
      <point x="609.0" y="308.0"/>
      <point x="609.0" y="408.0" type="curve" smooth="yes"/>
      <point x="609.0" y="489.0"/>
      <point x="643.0" y="519.0"/>
      <point x="741.0" y="523.0" type="curve" smooth="yes"/>
      <point x="816.0" y="526.0" type="line"/>
    </contour>
  </outline>
</glyph>
<glyph name="guillemotleft" format="2">
  <advance width="1521"/>
  <unicode hex="00AB"/>
  <outline>
    <contour>
      <point x="488.0" y="582.0" type="line"/>
      <point x="488.0" y="462.0" type="line"/>
      <point x="762.0" y="907.0" type="line"/>
      <point x="578.0" y="1074.0" type="line"/>
      <point x="80.0" y="662.0" type="line"/>
      <point x="80.0" y="382.0" type="line"/>
      <point x="578.0" y="-30.0" type="line"/>
      <point x="762.0" y="137.0" type="line"/>
    </contour>
    <contour>
      <point x="1168.0" y="582.0" type="line"/>
      <point x="1168.0" y="462.0" type="line"/>
      <point x="1442.0" y="907.0" type="line"/>
      <point x="1258.0" y="1074.0" type="line"/>
      <point x="760.0" y="662.0" type="line"/>
      <point x="760.0" y="382.0" type="line"/>
      <point x="1258.0" y="-30.0" type="line"/>
      <point x="1442.0" y="137.0" type="line"/>
    </contour>
  </outline>
</glyph>
<glyph name="registered" format="2">
  <advance width="1318.0"/>
  <unicode hex="00AE"/>
  <outline>
    <contour>
      <point x="657.0" y="1444.0" type="curve" smooth="yes"/>
      <point x="313.5687022900763" y="1444.0"/>
      <point x="123.0" y="1269.0"/>
      <point x="123.0" y="954.0" type="curve" smooth="yes"/>
      <point x="123.0" y="639.0"/>
      <point x="313.5687022900763" y="464.0"/>
      <point x="657.0" y="464.0" type="curve" smooth="yes"/>
      <point x="1003.439393939394" y="464.0"/>
      <point x="1195.0" y="639.0"/>
      <point x="1195.0" y="954.0" type="curve" smooth="yes"/>
      <point x="1195.0" y="1269.0"/>
      <point x="1003.439393939394" y="1444.0"/>
    </contour>
    <contour>
      <point x="657.0" y="1336.0" type="curve" smooth="yes"/>
      <point x="945.0" y="1336.0"/>
      <point x="1062.0" y="1200.0"/>
      <point x="1062.0" y="954.0" type="curve" smooth="yes"/>
      <point x="1062.0" y="708.0"/>
      <point x="945.0" y="572.0"/>
      <point x="657.0" y="572.0" type="curve" smooth="yes"/>
      <point x="369.0" y="572.0"/>
      <point x="256.0" y="708.0"/>
      <point x="256.0" y="954.0" type="curve" smooth="yes"/>
      <point x="256.0" y="1200.0"/>
      <point x="369.0" y="1336.0"/>
    </contour>
    <contour>
      <point x="536.0" y="999.0" type="line"/>
      <point x="536.0" y="926.0" type="line"/>
      <point x="650.0" y="926.0" type="line" smooth="yes"/>
      <point x="698.0" y="926.0"/>
      <point x="706.0" y="919.0"/>
      <point x="714.0" y="875.0" type="curve" smooth="yes"/>
      <point x="724.0" y="802.0" type="line" smooth="yes"/>
      <point x="733.0" y="736.0"/>
      <point x="777.0" y="723.0"/>
      <point x="947.0" y="738.0" type="curve"/>
      <point x="947.0" y="800.0" type="line"/>
      <point x="911.0" y="800.0"/>
      <point x="903.0" y="805.0"/>
      <point x="899.0" y="843.0" type="curve" smooth="yes"/>
      <point x="895.0" y="881.0" type="line" smooth="yes"/>
      <point x="889.0" y="936.0"/>
      <point x="860.0" y="957.0"/>
      <point x="784.0" y="961.0" type="curve"/>
      <point x="784.0" y="960.0" type="line"/>
      <point x="875.0" y="964.0"/>
      <point x="920.0" y="1007.0"/>
      <point x="920.0" y="1084.0" type="curve" smooth="yes"/>
      <point x="920.0" y="1168.0"/>
      <point x="868.0" y="1205.0"/>
      <point x="759.0" y="1205.0" type="curve" smooth="yes"/>
      <point x="536.0" y="1205.0" type="line"/>
      <point x="536.0" y="1106.0" type="line"/>
      <point x="708.0" y="1106.0" type="line" smooth="yes"/>
      <point x="739.0" y="1106.0"/>
      <point x="751.0" y="1090.0"/>
      <point x="751.0" y="1051.0" type="curve" smooth="yes"/>
      <point x="751.0" y="1015.0"/>
      <point x="735.0" y="999.0"/>
      <point x="701.0" y="999.0" type="curve" smooth="yes"/>
    </contour>
    <contour>
      <point x="453.0" y="1145.0" type="line"/>
      <point x="453.0" y="799.0" type="line"/>
      <point x="397.0" y="782.0" type="line"/>
      <point x="397.0" y="738.0" type="line"/>
      <point x="666.0" y="738.0" type="line"/>
      <point x="666.0" y="782.0" type="line"/>
      <point x="629.0" y="799.0" type="line"/>
      <point x="629.0" y="1205.0" type="line"/>
      <point x="397.0" y="1205.0" type="line"/>
      <point x="397.0" y="1160.0" type="line"/>
    </contour>
  </outline>
</glyph>
<glyph name="degree" format="2">
  <advance width="745.0"/>
  <unicode hex="00B0"/>
  <outline>
    <contour>
      <point x="372.0" y="1434.0" type="curve" smooth="yes"/>
      <point x="200.0" y="1434.0"/>
      <point x="76.0" y="1313.0"/>
      <point x="76.0" y="1140.0" type="curve" smooth="yes"/>
      <point x="76.0" y="967.0"/>
      <point x="200.0" y="846.0"/>
      <point x="372.0" y="846.0" type="curve" smooth="yes"/>
      <point x="545.0" y="846.0"/>
      <point x="669.0" y="967.0"/>
      <point x="669.0" y="1140.0" type="curve" smooth="yes"/>
      <point x="669.0" y="1313.0"/>
      <point x="545.0" y="1434.0"/>
    </contour>
    <contour>
      <point x="372.0" y="1003.0" type="curve" smooth="yes"/>
      <point x="295.0" y="1003.0"/>
      <point x="240.0" y="1057.0"/>
      <point x="240.0" y="1140.0" type="curve" smooth="yes"/>
      <point x="240.0" y="1223.0"/>
      <point x="295.0" y="1277.0"/>
      <point x="372.0" y="1277.0" type="curve" smooth="yes"/>
      <point x="450.0" y="1277.0"/>
      <point x="504.0" y="1223.0"/>
      <point x="504.0" y="1140.0" type="curve" smooth="yes"/>
      <point x="504.0" y="1057.0"/>
      <point x="450.0" y="1003.0"/>
    </contour>
  </outline>
</glyph>
<glyph name="guillemotright" format="2">
  <advance width="1549"/>
  <unicode hex="00BB"/>
  <outline>
    <contour>
      <point x="362.0" y="462.0" type="line"/>
      <point x="362.0" y="582.0" type="line"/>
      <point x="88.0" y="137.0" type="line"/>
      <point x="272.0" y="-30.0" type="line"/>
      <point x="770.0" y="382.0" type="line"/>
      <point x="770.0" y="662.0" type="line"/>
      <point x="272.0" y="1074.0" type="line"/>
      <point x="88.0" y="907.0" type="line"/>
    </contour>
    <contour>
      <point x="1042.0" y="462.0" type="line"/>
      <point x="1042.0" y="582.0" type="line"/>
      <point x="768.0" y="137.0" type="line"/>
      <point x="952.0" y="-30.0" type="line"/>
      <point x="1450.0" y="382.0" type="line"/>
      <point x="1450.0" y="662.0" type="line"/>
      <point x="952.0" y="1074.0" type="line"/>
      <point x="768.0" y="907.0" type="line"/>
    </contour>
  </outline>
</glyph>
<glyph name="questiondown" format="2">
  <advance width="1526.0"/>
  <unicode hex="00BF"/>
  <outline>
    <contour>
      <point x="806.0" y="-410.0" type="curve" smooth="yes"/>
      <point x="1315.0" y="-410.0"/>
      <point x="1474.0" y="-295.0"/>
      <point x="1474.0" y="-122.0" type="curve" smooth="yes"/>
      <point x="1474.0" y="-15.0"/>
      <point x="1391.0" y="57.0"/>
      <point x="1266.0" y="57.0" type="curve" smooth="yes"/>
      <point x="1191.0" y="57.0"/>
      <point x="1086.0" y="-139.0"/>
      <point x="878.0" y="-139.0" type="curve" smooth="yes"/>
      <point x="686.0" y="-139.0"/>
      <point x="621.0" y="-67.0"/>
      <point x="621.0" y="16.0" type="curve" smooth="yes"/>
      <point x="621.0" y="154.0"/>
      <point x="697.0" y="192.0"/>
      <point x="1007.0" y="176.0" type="curve"/>
      <point x="947.0" y="510.0" type="line"/>
      <point x="620.0" y="510.0" type="line"/>
      <point x="562.0" y="316.0" type="line"/>
      <point x="669.0" y="410.0" type="line"/>
      <point x="223.0" y="392.0"/>
      <point x="76.0" y="262.0"/>
      <point x="76.0" y="3.0" type="curve" smooth="yes"/>
      <point x="76.0" y="-219.0"/>
      <point x="245.0" y="-410.0"/>
    </contour>
    <contour>
      <point x="796.0" y="626.0" type="curve" smooth="yes"/>
      <point x="961.0" y="626.0"/>
      <point x="1053.0" y="703.0"/>
      <point x="1053.0" y="841.0" type="curve" smooth="yes"/>
      <point x="1053.0" y="984.0"/>
      <point x="961.0" y="1064.0"/>
      <point x="796.0" y="1064.0" type="curve" smooth="yes"/>
      <point x="631.0" y="1064.0"/>
      <point x="539.0" y="984.0"/>
      <point x="539.0" y="841.0" type="curve" smooth="yes"/>
      <point x="539.0" y="703.0"/>
      <point x="631.0" y="626.0"/>
    </contour>
  </outline>
</glyph>
<glyph name="Ccedilla" format="2">
  <advance width="1636.0"/>
  <unicode hex="00C7"/>
  <outline>
    <contour>
      <point x="1077.0" y="239.0" type="curve" smooth="yes"/>
      <point x="770.0" y="239.0"/>
      <point x="632.0" y="373.0"/>
      <point x="632.0" y="732.0" type="curve" smooth="yes"/>
      <point x="632.0" y="1053.0"/>
      <point x="737.0" y="1158.0"/>
      <point x="998.0" y="1158.0" type="curve" smooth="yes"/>
      <point x="1145.0" y="1158.0"/>
      <point x="1259.0" y="1128.0"/>
      <point x="1375.0" y="1050.0" type="curve"/>
      <point x="1167.0" y="1280.0" type="line"/>
      <point x="1313.0" y="886.0" type="line"/>
      <point x="1514.0" y="886.0" type="line"/>
      <point x="1514.0" y="1512.0" type="line"/>
      <point x="1355.0" y="1512.0" type="line"/>
      <point x="1225.0" y="1368.0" type="line"/>
      <point x="1352.0" y="1383.0" type="line"/>
      <point x="1215.0" y="1424.0"/>
      <point x="1079.0" y="1444.0"/>
      <point x="949.0" y="1444.0" type="curve" smooth="yes"/>
      <point x="353.0" y="1444.0"/>
      <point x="92.0" y="1123.0"/>
      <point x="92.0" y="684.0" type="curve" smooth="yes"/>
      <point x="92.0" y="204.0"/>
      <point x="373.0" y="-30.0"/>
      <point x="967.0" y="-30.0" type="curve" smooth="yes"/>
      <point x="1160.0" y="-30.0"/>
      <point x="1319.0" y="-6.0"/>
      <point x="1484.0" y="51.0" type="curve"/>
      <point x="1538.0" y="537.0" type="line"/>
      <point x="1369.0" y="537.0" type="line"/>
      <point x="1153.0" y="134.0" type="line"/>
      <point x="1384.0" y="302.0" type="line"/>
      <point x="1286.0" y="261.0"/>
      <point x="1174.0" y="239.0"/>
    </contour>
    <contour>
      <point x="851.0" y="-465.0" type="curve" smooth="yes"/>
      <point x="1049.0" y="-465.0"/>
      <point x="1189.0" y="-419.0"/>
      <point x="1189.0" y="-263.0" type="curve" smooth="yes"/>
      <point x="1189.0" y="-159.0"/>
      <point x="1149.0" y="-102.0"/>
      <point x="882.0" y="-65.0" type="curve"/>
      <point x="888.0" y="-190.0" type="line"/>
      <point x="1107.0" y="49.0" type="line"/>
      <point x="943.0" y="49.0" type="line"/>
      <point x="735.0" y="-184.0" type="line"/>
      <point x="735.0" y="-229.0" type="line"/>
      <point x="933.0" y="-250.0"/>
      <point x="965.0" y="-264.0"/>
      <point x="965.0" y="-307.0" type="curve" smooth="yes"/>
      <point x="965.0" y="-342.0"/>
      <point x="947.0" y="-356.0"/>
      <point x="888.0" y="-356.0" type="curve" smooth="yes"/>
      <point x="824.0" y="-356.0"/>
      <point x="743.0" y="-312.0"/>
      <point x="718.0" y="-312.0" type="curve" smooth="yes"/>
      <point x="695.0" y="-312.0"/>
      <point x="667.0" y="-329.0"/>
      <point x="667.0" y="-373.0" type="curve" smooth="yes"/>
      <point x="667.0" y="-437.0"/>
      <point x="700.0" y="-465.0"/>
    </contour>
  </outline>
</glyph>
<glyph name="multiply" format="2">
  <advance width="1140.0"/>
  <unicode hex="00D7"/>
  <outline>
    <contour>
      <point x="125.0" y="267.0" type="line"/>
      <point x="315.0" y="77.0" type="line"/>
      <point x="1015.0" y="777.0" type="line"/>
      <point x="825.0" y="967.0" type="line"/>
    </contour>
    <contour>
      <point x="125.0" y="777.0" type="line"/>
      <point x="825.0" y="77.0" type="line"/>
      <point x="1015.0" y="267.0" type="line"/>
      <point x="315.0" y="967.0" type="line"/>
    </contour>
  </outline>
</glyph>
<glyph name="ae" format="2">
  <advance width="1974.0"/>
  <unicode hex="00E6"/>
  <anchor x="986.0" y="1044.0" name="top"/>
  <anchor x="986.0" y="0" name="bottom"/>
  <outline>
    <contour>
      <point x="575.0" y="902.0" type="curve" smooth="yes"/>
      <point x="696.0" y="902.0"/>
      <point x="745.0" y="843.0"/>
      <point x="745.0" y="722.0" type="curve" smooth="yes"/>
      <point x="745.0" y="340.0" type="line" smooth="yes"/>
      <point x="745.0" y="285.0"/>
      <point x="702.0" y="253.0"/>
      <point x="624.0" y="253.0" type="curve" smooth="yes"/>
      <point x="536.0" y="253.0"/>
      <point x="522.0" y="277.0"/>
      <point x="522.0" y="360.0" type="curve" smooth="yes"/>
      <point x="522.0" y="448.0"/>
      <point x="556.0" y="478.0"/>
      <point x="779.0" y="493.0" type="curve"/>
      <point x="779.0" y="646.0" type="line"/>
      <point x="170.0" y="572.0"/>
      <point x="70.0" y="468.0"/>
      <point x="70.0" y="267.0" type="curve" smooth="yes"/>
      <point x="70.0" y="65.0"/>
      <point x="192.0" y="-30.0"/>
      <point x="418.0" y="-30.0" type="curve" smooth="yes"/>
      <point x="630.0" y="-30.0"/>
      <point x="756.0" y="40.0"/>
      <point x="801.0" y="354.0" type="curve"/>
      <point x="752.0" y="354.0" type="line"/>
      <point x="775.0" y="97.0"/>
      <point x="995.0" y="-30.0"/>
      <point x="1365.0" y="-30.0" type="curve" smooth="yes"/>
      <point x="1490.0" y="-30.0"/>
      <point x="1634.0" y="19.0"/>
      <point x="1866.0" y="168.0" type="curve"/>
      <point x="1866.0" y="309.0" type="line"/>
      <point x="1756.0" y="289.0"/>
      <point x="1649.0" y="280.0"/>
      <point x="1507.0" y="280.0" type="curve" smooth="yes"/>
      <point x="1270.0" y="280.0"/>
      <point x="1199.0" y="347.0"/>
      <point x="1199.0" y="612.0" type="curve" smooth="yes"/>
      <point x="1199.0" y="803.0"/>
      <point x="1234.0" y="849.0"/>
      <point x="1330.0" y="849.0" type="curve" smooth="yes"/>
      <point x="1434.0" y="849.0"/>
      <point x="1474.0" y="813.0"/>
      <point x="1466.0" y="565.0" type="curve"/>
      <point x="1650.0" y="643.0" type="line"/>
      <point x="1083.0" y="643.0" type="line"/>
      <point x="1083.0" y="483.0" type="line"/>
      <point x="1903.0" y="483.0" type="line"/>
      <point x="1884.0" y="919.0"/>
      <point x="1720.0" y="1074.0"/>
      <point x="1357.0" y="1074.0" type="curve" smooth="yes"/>
      <point x="1151.0" y="1074.0"/>
      <point x="1033.0" y="972.0"/>
      <point x="959.0" y="850.0" type="curve"/>
      <point x="1234.0" y="850.0" type="line"/>
      <point x="1179.0" y="950.0"/>
      <point x="1030.0" y="1074.0"/>
      <point x="751.0" y="1074.0" type="curve" smooth="yes"/>
      <point x="346.0" y="1074.0"/>
      <point x="93.0" y="901.0"/>
      <point x="93.0" y="784.0" type="curve" smooth="yes"/>
      <point x="93.0" y="726.0"/>
      <point x="139.0" y="689.0"/>
      <point x="244.0" y="689.0" type="curve" smooth="yes"/>
      <point x="358.0" y="689.0"/>
      <point x="411.0" y="705.0"/>
      <point x="434.0" y="771.0" type="curve" smooth="yes"/>
      <point x="457.0" y="835.0"/>
      <point x="476.0" y="904.0"/>
      <point x="494.0" y="983.0" type="curve"/>
      <point x="438.0" y="895.0" type="line"/>
      <point x="465.0" y="899.0"/>
      <point x="500.0" y="902.0"/>
    </contour>
  </outline>
</glyph>
<glyph name="aogonek" format="2">
  <advance width="1384.0"/>
  <unicode hex="0105"/>
  <outline>
    <contour>
      <point x="1363.0" y="51.0" type="line"/>
      <point x="1363.0" y="192.0" type="line"/>
      <point x="1331.0" y="187.0"/>
      <point x="1310.0" y="185.0"/>
      <point x="1292.0" y="185.0" type="curve" smooth="yes"/>
      <point x="1242.0" y="185.0"/>
      <point x="1219.0" y="200.0"/>
      <point x="1219.0" y="257.0" type="curve" smooth="yes"/>
      <point x="1219.0" y="691.0" type="line" smooth="yes"/>
      <point x="1219.0" y="937.0"/>
      <point x="1096.0" y="1074.0"/>
      <point x="751.0" y="1074.0" type="curve" smooth="yes"/>
      <point x="346.0" y="1074.0"/>
      <point x="93.0" y="901.0"/>
      <point x="93.0" y="784.0" type="curve" smooth="yes"/>
      <point x="93.0" y="726.0"/>
      <point x="139.0" y="689.0"/>
      <point x="244.0" y="689.0" type="curve" smooth="yes"/>
      <point x="358.0" y="689.0"/>
      <point x="411.0" y="705.0"/>
      <point x="434.0" y="771.0" type="curve" smooth="yes"/>
      <point x="457.0" y="835.0"/>
      <point x="476.0" y="904.0"/>
      <point x="494.0" y="983.0" type="curve"/>
      <point x="438.0" y="895.0" type="line"/>
      <point x="465.0" y="899.0"/>
      <point x="500.0" y="902.0"/>
      <point x="575.0" y="902.0" type="curve" smooth="yes"/>
      <point x="696.0" y="902.0"/>
      <point x="745.0" y="843.0"/>
      <point x="745.0" y="722.0" type="curve" smooth="yes"/>
      <point x="745.0" y="336.0" type="line" smooth="yes"/>
      <point x="745.0" y="285.0"/>
      <point x="702.0" y="253.0"/>
      <point x="624.0" y="253.0" type="curve" smooth="yes"/>
      <point x="536.0" y="253.0"/>
      <point x="522.0" y="277.0"/>
      <point x="522.0" y="360.0" type="curve" smooth="yes"/>
      <point x="522.0" y="448.0"/>
      <point x="556.0" y="478.0"/>
      <point x="779.0" y="493.0" type="curve"/>
      <point x="779.0" y="646.0" type="line"/>
      <point x="170.0" y="572.0"/>
      <point x="70.0" y="468.0"/>
      <point x="70.0" y="267.0" type="curve" smooth="yes"/>
      <point x="70.0" y="65.0"/>
      <point x="192.0" y="-30.0"/>
      <point x="418.0" y="-30.0" type="curve" smooth="yes"/>
      <point x="618.0" y="-30.0"/>
      <point x="713.0" y="42.0"/>
      <point x="778.0" y="304.0" type="curve"/>
      <point x="763.0" y="288.0" type="line"/>
      <point x="778.0" y="58.0"/>
      <point x="871.0" y="-30.0"/>
      <point x="1050.0" y="-30.0" type="curve" smooth="yes"/>
      <point x="1110.0" y="-30.0"/>
      <point x="1166.0" y="-21.0"/>
      <point x="1219.0" y="-6.0" type="curve"/>
      <point x="1209.0" y="10.0" type="line"/>
      <point x="1155.0" y="-30.0" type="line" smooth="yes"/>
      <point x="987.0" y="-155.0"/>
      <point x="950.0" y="-218.0"/>
      <point x="950.0" y="-291.0" type="curve" smooth="yes"/>
      <point x="950.0" y="-403.0"/>
      <point x="1007.0" y="-465.0"/>
      <point x="1150.0" y="-465.0" type="curve" smooth="yes"/>
      <point x="1224.0" y="-465.0"/>
      <point x="1274.0" y="-447.0"/>
      <point x="1366.0" y="-387.0" type="curve"/>
      <point x="1366.0" y="-277.0" type="line"/>
      <point x="1312.0" y="-299.0"/>
      <point x="1285.0" y="-303.0"/>
      <point x="1243.0" y="-303.0" type="curve" smooth="yes"/>
      <point x="1198.0" y="-303.0"/>
      <point x="1162.0" y="-282.0"/>
      <point x="1162.0" y="-236.0" type="curve" smooth="yes"/>
      <point x="1162.0" y="-200.0"/>
      <point x="1171.0" y="-172.0"/>
      <point x="1234.0" y="-99.0" type="curve" smooth="yes"/>
    </contour>
  </outline>
</glyph>
<glyph name="dcroat" format="2">
  <advance width="1502"/>
  <unicode hex="0111"/>
  <outline>
    <contour>
      <point x="833.0" y="654.0" type="curve" smooth="yes"/>
      <point x="833.0" y="197.0" type="line"/>
      <point x="938.0" y="-30.0" type="line"/>
      <point x="1001.0" y="-30.0" type="line"/>
      <point x="1477.0" y="99.0" type="line"/>
      <point x="1477.0" y="189.0" type="line"/>
      <point x="1435.0" y="221.0"/>
      <point x="1333.0" y="298.7142857142857"/>
      <point x="1309.0" y="317.0" type="curve"/>
      <point x="1309.0" y="1194.0" type="line"/>
      <point x="1335.0" y="1494.0" type="line"/>
      <point x="1213.0" y="1494.0" type="line"/>
      <point x="793.0" y="1464.0" type="line"/>
      <point x="793.0" y="1332.0" type="line"/>
      <point x="807.0" y="1312.0"/>
      <point x="820.0" y="1292.0"/>
      <point x="833.0" y="1272.0" type="curve"/>
      <point x="833.0" y="970.0" type="line"/>
      <point x="1130.0" y="970.0" type="line"/>
      <point x="978.0" y="1049.0"/>
      <point x="877.0" y="1074.0"/>
      <point x="715.0" y="1074.0" type="curve" smooth="yes"/>
      <point x="357.0" y="1074.0"/>
      <point x="78.0" y="853.0"/>
      <point x="78.0" y="482.0" type="curve" smooth="yes"/>
      <point x="78.0" y="165.0"/>
      <point x="224.0" y="-30.0"/>
      <point x="518.0" y="-30.0" type="curve" smooth="yes"/>
      <point x="597.0" y="-30.0"/>
      <point x="636.0" y="-17.0"/>
      <point x="903.0" y="179.0" type="curve"/>
      <point x="903.0" y="252.0" type="line"/>
      <point x="847.0" y="246.0"/>
      <point x="781.0" y="243.0"/>
      <point x="742.0" y="243.0" type="curve" smooth="yes"/>
      <point x="594.0" y="243.0"/>
      <point x="540.0" y="310.0"/>
      <point x="540.0" y="525.0" type="curve" smooth="yes"/>
      <point x="540.0" y="762.0"/>
      <point x="606.0" y="826.0"/>
      <point x="724.0" y="826.0" type="curve" smooth="yes"/>
      <point x="803.0" y="826.0"/>
      <point x="833.0" y="783.0"/>
    </contour>
    <contour>
      <point x="624.0" y="1142.0" type="line"/>
      <point x="1454.0" y="1142.0" type="line"/>
      <point x="1454.0" y="1272.0" type="line"/>
      <point x="624.0" y="1272.0" type="line"/>
    </contour>
  </outline>
</glyph>
<glyph name="Iogonek" format="2">
  <advance width="1062.0"/>
  <unicode hex="012E"/>
  <outline>
    <contour>
      <point x="968.0" y="136.0" type="line"/>
      <point x="800.0" y="185.0" type="line"/>
      <point x="800.0" y="1229.0" type="line"/>
      <point x="968.0" y="1278.0" type="line"/>
      <point x="968.0" y="1414.0" type="line"/>
      <point x="94.0" y="1414.0" type="line"/>
      <point x="94.0" y="1278.0" type="line"/>
      <point x="262.0" y="1229.0" type="line"/>
      <point x="262.0" y="185.0" type="line"/>
      <point x="94.0" y="136.0" type="line"/>
      <point x="94.0" y="0.0" type="line"/>
      <point x="968.0" y="0.0" type="line"/>
    </contour>
    <contour>
      <point x="576.0" y="-66.0" type="curve" smooth="yes"/>
      <point x="653.0" y="97.0" type="line"/>
      <point x="544.0" y="97.0" type="line"/>
      <point x="445.0" y="-28.0" type="line" smooth="yes"/>
      <point x="338.0" y="-164.0"/>
      <point x="318.0" y="-218.0"/>
      <point x="318.0" y="-291.0" type="curve" smooth="yes"/>
      <point x="318.0" y="-403.0"/>
      <point x="375.0" y="-465.0"/>
      <point x="518.0" y="-465.0" type="curve" smooth="yes"/>
      <point x="592.0" y="-465.0"/>
      <point x="642.0" y="-447.0"/>
      <point x="734.0" y="-387.0" type="curve"/>
      <point x="734.0" y="-277.0" type="line"/>
      <point x="680.0" y="-299.0"/>
      <point x="653.0" y="-303.0"/>
      <point x="611.0" y="-303.0" type="curve" smooth="yes"/>
      <point x="566.0" y="-303.0"/>
      <point x="530.0" y="-282.0"/>
      <point x="530.0" y="-236.0" type="curve" smooth="yes"/>
      <point x="530.0" y="-195.0"/>
      <point x="537.0" y="-148.0"/>
    </contour>
  </outline>
</glyph>
<glyph name="iogonek" format="2">
  <advance width="871.0"/>
  <unicode hex="012F"/>
  <outline>
    <contour>
      <point x="447.0" y="1164.0" type="curve" smooth="yes"/>
      <point x="642.0" y="1164.0"/>
      <point x="727.0" y="1221.0"/>
      <point x="727.0" y="1332.0" type="curve" smooth="yes"/>
      <point x="727.0" y="1442.0"/>
      <point x="642.0" y="1494.0"/>
      <point x="447.0" y="1494.0" type="curve" smooth="yes"/>
      <point x="252.0" y="1494.0"/>
      <point x="167.0" y="1442.0"/>
      <point x="167.0" y="1332.0" type="curve" smooth="yes"/>
      <point x="167.0" y="1221.0"/>
      <point x="252.0" y="1164.0"/>
    </contour>
    <contour>
      <point x="716.0" y="1074.0" type="line"/>
      <point x="574.0" y="1074.0" type="line"/>
      <point x="60.0" y="948.0" type="line"/>
      <point x="60.0" y="844.0" type="line"/>
      <point x="121.0" y="784.9805194805194"/>
      <point x="192.0" y="716.2857142857143"/>
      <point x="214.0" y="695.0" type="curve"/>
      <point x="214.0" y="152.0" type="line"/>
      <point x="92.0" y="119.0" type="line"/>
      <point x="92.0" y="0.0" type="line"/>
      <point x="812.0" y="0.0" type="line"/>
      <point x="812.0" y="119.0" type="line"/>
      <point x="690.0" y="152.0" type="line"/>
      <point x="690.0" y="704.0" type="line"/>
    </contour>
    <contour>
      <point x="482.0" y="-76.0" type="curve" smooth="yes"/>
      <point x="584.0" y="97.0" type="line"/>
      <point x="475.0" y="97.0" type="line"/>
      <point x="361.0" y="-31.0" type="line" smooth="yes"/>
      <point x="240.0" y="-166.0"/>
      <point x="219.0" y="-218.0"/>
      <point x="219.0" y="-291.0" type="curve" smooth="yes"/>
      <point x="219.0" y="-403.0"/>
      <point x="276.0" y="-465.0"/>
      <point x="419.0" y="-465.0" type="curve" smooth="yes"/>
      <point x="493.0" y="-465.0"/>
      <point x="543.0" y="-447.0"/>
      <point x="635.0" y="-387.0" type="curve"/>
      <point x="635.0" y="-277.0" type="line"/>
      <point x="581.0" y="-299.0"/>
      <point x="554.0" y="-303.0"/>
      <point x="512.0" y="-303.0" type="curve" smooth="yes"/>
      <point x="457.0" y="-303.0"/>
      <point x="431.0" y="-280.0"/>
      <point x="431.0" y="-225.0" type="curve" smooth="yes"/>
      <point x="431.0" y="-189.0"/>
      <point x="434.0" y="-157.0"/>
    </contour>
  </outline>
</glyph>
<glyph name="kgreenlandic" format="2">
  <advance width="1642.0"/>
  <unicode hex="0138"/>
  <outline>
    <contour>
      <point x="849.0" y="419.0" type="line"/>
      <point x="1059.0" y="102.0" type="line"/>
      <point x="1059.0" y="102.0" type="line"/>
      <point x="1059.0" y="0.0" type="line"/>
      <point x="1641.0" y="0.0" type="line"/>
      <point x="1641.0" y="102.0" type="line"/>
      <point x="1540.0" y="159.0" type="line"/>
      <point x="1128.0" y="767.0" type="line"/>
      <point x="909.0" y="468.0" type="line"/>
      <point x="1387.0" y="905.0" type="line"/>
      <point x="1556.0" y="935.0" type="line"/>
      <point x="1556.0" y="1044.0" type="line"/>
      <point x="940.0" y="1044.0" type="line"/>
      <point x="940.0" y="935.0" type="line"/>
      <point x="1100.0" y="907.0" type="line"/>
      <point x="850.0" y="651.0" type="line"/>
      <point x="497.0" y="651.0" type="line"/>
      <point x="497.0" y="419.0" type="line"/>
    </contour>
    <contour>
      <point x="716.0" y="1074.0" type="line"/>
      <point x="574.0" y="1074.0" type="line"/>
      <point x="60.0" y="948.0" type="line"/>
      <point x="60.0" y="844.0" type="line"/>
      <point x="121.0" y="784.9805194805194"/>
      <point x="192.0" y="716.2857142857143"/>
      <point x="214.0" y="695.0" type="curve"/>
      <point x="214.0" y="152.0" type="line"/>
      <point x="92.0" y="119.0" type="line"/>
      <point x="92.0" y="0.0" type="line"/>
      <point x="812.0" y="0.0" type="line"/>
      <point x="812.0" y="119.0" type="line"/>
      <point x="690.0" y="152.0" type="line"/>
      <point x="690.0" y="704.0" type="line"/>
    </contour>
  </outline>
</glyph>
<glyph name="Lslash" format="2">
  <advance width="1639.0"/>
  <unicode hex="0141"/>
  <outline>
    <contour>
      <point x="478.0" y="554.0" type="line"/>
      <point x="661.0" y="590.0" type="line"/>
      <point x="1104.0" y="820.0" type="line"/>
      <point x="1104.0" y="1049.0" type="line"/>
      <point x="661.0" y="819.0" type="line"/>
      <point x="478.0" y="783.0" type="line"/>
      <point x="118.0" y="595.0" type="line"/>
      <point x="118.0" y="366.0" type="line"/>
    </contour>
    <contour>
      <point x="1483.0" y="-103.0" type="line"/>
      <point x="1605.0" y="603.0" type="line"/>
      <point x="1390.0" y="603.0" type="line"/>
      <point x="1127.0" y="148.0" type="line"/>
      <point x="1290.0" y="294.0" type="line"/>
      <point x="584.0" y="294.0" type="line"/>
      <point x="571.0" y="0.0" type="line"/>
      <point x="1215.0" y="0.0" type="line"/>
      <point x="1319.0" y="-103.0" type="line"/>
    </contour>
    <contour>
      <point x="824.0" y="1229.0" type="line"/>
      <point x="992.0" y="1278.0" type="line"/>
      <point x="992.0" y="1414.0" type="line"/>
      <point x="118.0" y="1414.0" type="line"/>
      <point x="118.0" y="1278.0" type="line"/>
      <point x="286.0" y="1229.0" type="line"/>
      <point x="286.0" y="185.0" type="line"/>
      <point x="118.0" y="136.0" type="line"/>
      <point x="118.0" y="0.0" type="line"/>
      <point x="824.0" y="0.0" type="line"/>
    </contour>
  </outline>
</glyph>
<glyph name="lslash" format="2">
  <advance width="902"/>
  <unicode hex="0142"/>
  <outline>
    <contour>
      <point x="342.0" y="568.0" type="line"/>
      <point x="473.0" y="554.0" type="line"/>
      <point x="831.0" y="810.0" type="line"/>
      <point x="831.0" y="976.0" type="line"/>
      <point x="473.0" y="720.0" type="line"/>
      <point x="342.0" y="734.0" type="line"/>
      <point x="83.0" y="550.0" type="line"/>
      <point x="83.0" y="384.0" type="line"/>
    </contour>
    <contour>
      <point x="685.0" y="152.0" type="line"/>
      <point x="685.0" y="1194.0" type="line"/>
      <point x="711.0" y="1494.0" type="line"/>
      <point x="589.0" y="1494.0" type="line"/>
      <point x="25.0" y="1396.0" type="line"/>
      <point x="25.0" y="1264.0" type="line"/>
      <point x="103.0" y="1210.163043478261"/>
      <point x="183.0" y="1154.945652173913"/>
      <point x="209.0" y="1137.0" type="curve"/>
      <point x="209.0" y="152.0" type="line"/>
      <point x="87.0" y="119.0" type="line"/>
      <point x="87.0" y="0.0" type="line"/>
      <point x="807.0" y="0.0" type="line"/>
      <point x="807.0" y="119.0" type="line"/>
    </contour>
  </outline>
</glyph>
<glyph name="oe" format="2">
  <advance width="2055.0"/>
  <unicode hex="0153"/>
  <anchor x="1030.0" y="1044.0" name="top"/>
  <anchor x="1030.0" y="0" name="bottom"/>
  <outline>
    <contour>
      <point x="682.0" y="240.0" type="curve" smooth="yes"/>
      <point x="576.0" y="240.0"/>
      <point x="538.0" y="317.0"/>
      <point x="538.0" y="540.0" type="curve" smooth="yes"/>
      <point x="538.0" y="736.0"/>
      <point x="578.0" y="804.0"/>
      <point x="692.0" y="804.0" type="curve" smooth="yes"/>
      <point x="798.0" y="804.0"/>
      <point x="836.0" y="727.0"/>
      <point x="836.0" y="504.0" type="curve" smooth="yes"/>
      <point x="836.0" y="308.0"/>
      <point x="796.0" y="240.0"/>
    </contour>
    <contour>
      <point x="1225.0" y="268.0" type="curve"/>
      <point x="908.0" y="268.0" type="line"/>
      <point x="1003.0" y="95.0"/>
      <point x="1187.0" y="-30.0"/>
      <point x="1446.0" y="-30.0" type="curve" smooth="yes"/>
      <point x="1571.0" y="-30.0"/>
      <point x="1715.0" y="19.0"/>
      <point x="1947.0" y="168.0" type="curve"/>
      <point x="1947.0" y="309.0" type="line"/>
      <point x="1837.0" y="289.0"/>
      <point x="1730.0" y="280.0"/>
      <point x="1588.0" y="280.0" type="curve" smooth="yes"/>
      <point x="1351.0" y="280.0"/>
      <point x="1280.0" y="347.0"/>
      <point x="1280.0" y="612.0" type="curve" smooth="yes"/>
      <point x="1280.0" y="803.0"/>
      <point x="1315.0" y="849.0"/>
      <point x="1411.0" y="849.0" type="curve" smooth="yes"/>
      <point x="1515.0" y="849.0"/>
      <point x="1555.0" y="813.0"/>
      <point x="1547.0" y="565.0" type="curve"/>
      <point x="1731.0" y="643.0" type="line"/>
      <point x="1164.0" y="643.0" type="line"/>
      <point x="1164.0" y="483.0" type="line"/>
      <point x="1984.0" y="483.0" type="line"/>
      <point x="1965.0" y="919.0"/>
      <point x="1801.0" y="1074.0"/>
      <point x="1438.0" y="1074.0" type="curve" smooth="yes"/>
      <point x="1212.0" y="1074.0"/>
      <point x="1049.0" y="958.0"/>
      <point x="946.0" y="808.0" type="curve"/>
      <point x="1210.0" y="808.0" type="line"/>
      <point x="1105.0" y="960.0"/>
      <point x="934.0" y="1074.0"/>
      <point x="707.0" y="1074.0" type="curve" smooth="yes"/>
      <point x="305.0" y="1074.0"/>
      <point x="76.0" y="871.0"/>
      <point x="76.0" y="515.0" type="curve" smooth="yes"/>
      <point x="76.0" y="168.0"/>
      <point x="291.0" y="-30.0"/>
      <point x="667.0" y="-30.0" type="curve" smooth="yes"/>
      <point x="928.0" y="-30.0"/>
      <point x="1120.0" y="98.0"/>
    </contour>
  </outline>
</glyph>
<glyph name="Tbar" format="2">
  <advance width="1740"/>
  <unicode hex="0166"/>
  <outline>
    <contour>
      <point x="329.0" y="536.0" type="line"/>
      <point x="1411.0" y="536.0" type="line"/>
      <point x="1411.0" y="758.0" type="line"/>
      <point x="329.0" y="758.0" type="line"/>
    </contour>
    <contour>
      <point x="601.0" y="1359.0" type="line"/>
      <point x="601.0" y="185.0" type="line"/>
      <point x="433.0" y="136.0" type="line"/>
      <point x="433.0" y="0.0" type="line"/>
      <point x="1307.0" y="0.0" type="line"/>
      <point x="1307.0" y="136.0" type="line"/>
      <point x="1139.0" y="185.0" type="line"/>
      <point x="1139.0" y="1359.0" type="line"/>
    </contour>
    <contour>
      <point x="1442.0" y="1120.0" type="line"/>
      <point x="1312.0" y="1267.0" type="line"/>
      <point x="1491.0" y="858.0" type="line"/>
      <point x="1696.0" y="858.0" type="line"/>
      <point x="1624.0" y="1514.0" type="line"/>
      <point x="1473.0" y="1514.0" type="line"/>
      <point x="1352.0" y="1365.0" type="line"/>
      <point x="1516.0" y="1414.0" type="line"/>
      <point x="223.0" y="1414.0" type="line"/>
      <point x="388.0" y="1365.0" type="line"/>
      <point x="267.0" y="1514.0" type="line"/>
      <point x="116.0" y="1514.0" type="line"/>
      <point x="44.0" y="858.0" type="line"/>
      <point x="249.0" y="858.0" type="line"/>
      <point x="428.0" y="1267.0" type="line"/>
      <point x="298.0" y="1120.0" type="line"/>
    </contour>
  </outline>
</glyph>
<glyph name="tbar" format="2">
  <advance width="1152.0"/>
  <unicode hex="0167"/>
  <outline>
    <contour>
      <point x="61.0" y="471.0" type="line"/>
      <point x="1011.0" y="471.0" type="line"/>
      <point x="1011.0" y="601.0" type="line"/>
      <point x="61.0" y="601.0" type="line"/>
    </contour>
    <contour>
      <point x="696.0" y="397.0" type="curve" smooth="yes"/>
      <point x="696.0" y="1023.0" type="line"/>
      <point x="696.0" y="1342.0" type="line"/>
      <point x="576.0" y="1342.0" type="line"/>
      <point x="394.0936454849499" y="1244.0"/>
      <point x="61.83612040133779" y="1065.0"/>
      <point x="21.0" y="1043.0" type="curve"/>
      <point x="21.0" y="941.0" type="line"/>
      <point x="222.0" y="765.0" type="line"/>
      <point x="222.0" y="309.0" type="line" smooth="yes"/>
      <point x="222.0" y="85.0"/>
      <point x="352.0" y="-30.0"/>
      <point x="608.0" y="-30.0" type="curve" smooth="yes"/>
      <point x="736.0" y="-30.0"/>
      <point x="830.0" y="-2.0"/>
      <point x="1120.0" y="115.0" type="curve"/>
      <point x="1120.0" y="281.0" type="line"/>
      <point x="1026.0" y="264.0"/>
      <point x="952.0" y="258.0"/>
      <point x="887.0" y="258.0" type="curve" smooth="yes"/>
      <point x="736.0" y="258.0"/>
      <point x="696.0" y="292.0"/>
    </contour>
    <contour>
      <point x="500.0" y="790.0" type="line"/>
      <point x="1087.0" y="790.0" type="line"/>
      <point x="1087.0" y="1044.0" type="line"/>
      <point x="506.0" y="1044.0" type="line"/>
    </contour>
  </outline>
</glyph>
<glyph name="uogonek" format="2">
  <advance width="1555"/>
  <unicode hex="0173"/>
  <outline>
    <contour>
      <point x="659.0" y="403.0" type="curve" smooth="yes"/>
      <point x="659.0" y="886.0" type="line"/>
      <point x="680.0" y="1054.0" type="line"/>
      <point x="30.0" y="1024.0" type="line"/>
      <point x="30.0" y="922.0" type="line"/>
      <point x="183.0" y="812.0" type="line"/>
      <point x="183.0" y="272.0" type="line" smooth="yes"/>
      <point x="183.0" y="81.0"/>
      <point x="295.0" y="-30.0"/>
      <point x="525.0" y="-30.0" type="curve" smooth="yes"/>
      <point x="624.0" y="-30.0"/>
      <point x="645.0" y="-24.0"/>
      <point x="943.0" y="213.0" type="curve"/>
      <point x="924.0" y="331.0" type="line"/>
      <point x="859.0" y="319.0"/>
      <point x="803.0" y="314.0"/>
      <point x="767.0" y="314.0" type="curve" smooth="yes"/>
      <point x="687.0" y="314.0"/>
      <point x="659.0" y="339.0"/>
    </contour>
    <contour>
      <point x="982.0" y="-30.0" type="line"/>
      <point x="1045.0" y="-30.0" type="line"/>
      <point x="1521.0" y="99.0" type="line"/>
      <point x="1521.0" y="189.0" type="line"/>
      <point x="1479.0" y="221.0"/>
      <point x="1377.0" y="298.7142857142857"/>
      <point x="1353.0" y="317.0" type="curve"/>
      <point x="1353.0" y="872.0" type="line"/>
      <point x="1353.0" y="1044.0" type="line"/>
      <point x="877.0" y="1044.0" type="line"/>
      <point x="877.0" y="942.0" type="line"/>
      <point x="877.0" y="863.0" type="line"/>
      <point x="877.0" y="197.0" type="line"/>
    </contour>
    <contour>
      <point x="1103.0" y="-76.0" type="curve" smooth="yes"/>
      <point x="1231.0" y="97.0" type="line"/>
      <point x="1122.0" y="97.0" type="line"/>
      <point x="983.0" y="-30.0" type="line" smooth="yes"/>
      <point x="839.0" y="-161.0"/>
      <point x="818.0" y="-218.0"/>
      <point x="818.0" y="-291.0" type="curve" smooth="yes"/>
      <point x="818.0" y="-403.0"/>
      <point x="875.0" y="-465.0"/>
      <point x="1018.0" y="-465.0" type="curve" smooth="yes"/>
      <point x="1092.0" y="-465.0"/>
      <point x="1142.0" y="-447.0"/>
      <point x="1234.0" y="-387.0" type="curve"/>
      <point x="1234.0" y="-277.0" type="line"/>
      <point x="1180.0" y="-299.0"/>
      <point x="1153.0" y="-303.0"/>
      <point x="1111.0" y="-303.0" type="curve" smooth="yes"/>
      <point x="1066.0" y="-303.0"/>
      <point x="1030.0" y="-282.0"/>
      <point x="1030.0" y="-234.0" type="curve" smooth="yes"/>
      <point x="1030.0" y="-185.0"/>
      <point x="1043.0" y="-157.0"/>
    </contour>
  </outline>
</glyph>
<glyph name="ohorn" format="2">
  <advance width="1399.0"/>
  <unicode hex="01A1"/>
  <anchor x="687.0" y="1044.0" name="top"/>
  <anchor x="687.0" y="0" name="bottom"/>
  <outline>
    <contour>
      <point x="682.0" y="240.0" type="curve" smooth="yes"/>
      <point x="576.0" y="240.0"/>
      <point x="538.0" y="317.0"/>
      <point x="538.0" y="540.0" type="curve" smooth="yes"/>
      <point x="538.0" y="736.0"/>
      <point x="578.0" y="804.0"/>
      <point x="692.0" y="804.0" type="curve" smooth="yes"/>
      <point x="798.0" y="804.0"/>
      <point x="836.0" y="727.0"/>
      <point x="836.0" y="504.0" type="curve" smooth="yes"/>
      <point x="836.0" y="308.0"/>
      <point x="796.0" y="240.0"/>
    </contour>
    <contour>
      <point x="1378.0" y="1197.0" type="curve" smooth="yes"/>
      <point x="1378.0" y="1323.0"/>
      <point x="1301.0" y="1367.0"/>
      <point x="1206.0" y="1367.0" type="curve" smooth="yes"/>
      <point x="1133.0" y="1367.0"/>
      <point x="1065.0" y="1325.0"/>
      <point x="1063.0" y="1274.0" type="curve" smooth="yes"/>
      <point x="1062.0" y="1255.0"/>
      <point x="1103.0" y="1217.0"/>
      <point x="1103.0" y="1147.0" type="curve" smooth="yes"/>
      <point x="1103.0" y="1088.0"/>
      <point x="1077.0" y="1044.0"/>
      <point x="975.0" y="1044.0" type="curve" smooth="yes"/>
      <point x="905.0" y="1044.0"/>
      <point x="858.0" y="1074.0"/>
      <point x="707.0" y="1074.0" type="curve" smooth="yes"/>
      <point x="305.0" y="1074.0"/>
      <point x="76.0" y="871.0"/>
      <point x="76.0" y="515.0" type="curve" smooth="yes"/>
      <point x="76.0" y="168.0"/>
      <point x="291.0" y="-30.0"/>
      <point x="667.0" y="-30.0" type="curve" smooth="yes"/>
      <point x="1069.0" y="-30.0"/>
      <point x="1298.0" y="173.0"/>
      <point x="1298.0" y="529.0" type="curve" smooth="yes"/>
      <point x="1298.0" y="701.0"/>
      <point x="1245.0" y="847.0"/>
      <point x="1122.0" y="947.0" type="curve"/>
      <point x="1122.0" y="929.0" type="line"/>
      <point x="1314.0" y="957.0"/>
      <point x="1378.0" y="1054.0"/>
    </contour>
  </outline>
</glyph>
<glyph name="Uhorn" format="2">
  <advance width="1892.0"/>
  <unicode hex="01AF"/>
  <anchor x="1019.0" y="1414" name="UCtop"/>
  <anchor x="989.0" y="0" name="bottom"/>
  <outline>
    <contour>
      <point x="1736.0" y="1517.0" type="curve" smooth="yes"/>
      <point x="1736.0" y="1450.0"/>
      <point x="1704.0" y="1414.0"/>
      <point x="1600.0" y="1414.0" type="curve" smooth="yes"/>
      <point x="1171.0" y="1414.0" type="line"/>
      <point x="1171.0" y="1278.0" type="line"/>
      <point x="1339.0" y="1231.0" type="line"/>
      <point x="1339.0" y="612.0" type="line" smooth="yes"/>
      <point x="1339.0" y="426.0"/>
      <point x="1255.0" y="338.0"/>
      <point x="1048.0" y="338.0" type="curve" smooth="yes"/>
      <point x="850.0" y="338.0"/>
      <point x="752.0" y="409.0"/>
      <point x="752.0" y="565.0" type="curve" smooth="yes"/>
      <point x="752.0" y="1231.0" type="line"/>
      <point x="920.0" y="1278.0" type="line"/>
      <point x="920.0" y="1414.0" type="line"/>
      <point x="46.0" y="1414.0" type="line"/>
      <point x="46.0" y="1278.0" type="line"/>
      <point x="214.0" y="1231.0" type="line"/>
      <point x="214.0" y="528.0" type="line" smooth="yes"/>
      <point x="214.0" y="130.0"/>
      <point x="453.0" y="-30.0"/>
      <point x="944.0" y="-30.0" type="curve" smooth="yes"/>
      <point x="1393.0" y="-30.0"/>
      <point x="1623.0" y="154.0"/>
      <point x="1623.0" y="580.0" type="curve" smooth="yes"/>
      <point x="1623.0" y="1235.0" type="line"/>
      <point x="1919.0" y="1274.0"/>
      <point x="2011.0" y="1389.0"/>
      <point x="2011.0" y="1567.0" type="curve" smooth="yes"/>
      <point x="2011.0" y="1693.0"/>
      <point x="1934.0" y="1737.0"/>
      <point x="1839.0" y="1737.0" type="curve" smooth="yes"/>
      <point x="1766.0" y="1737.0"/>
      <point x="1698.0" y="1695.0"/>
      <point x="1696.0" y="1644.0" type="curve" smooth="yes"/>
      <point x="1695.0" y="1625.0"/>
      <point x="1736.0" y="1587.0"/>
    </contour>
  </outline>
</glyph>
<glyph name="uni01EA" format="2">
  <advance width="1797.0"/>
  <unicode hex="01EA"/>
  <outline>
    <contour>
      <point x="933.0" y="1444.0" type="curve" smooth="yes"/>
      <point x="410.0" y="1444.0"/>
      <point x="92.0" y="1181.0"/>
      <point x="92.0" y="706.0" type="curve" smooth="yes"/>
      <point x="92.0" y="234.0"/>
      <point x="363.0" y="-29.0"/>
      <point x="864.0" y="-29.0" type="curve" smooth="yes"/>
      <point x="1387.0" y="-29.0"/>
      <point x="1705.0" y="234.0"/>
      <point x="1705.0" y="709.0" type="curve" smooth="yes"/>
      <point x="1705.0" y="1181.0"/>
      <point x="1434.0" y="1444.0"/>
    </contour>
    <contour>
      <point x="897.0" y="275.0" type="curve" smooth="yes"/>
      <point x="701.0" y="275.0"/>
      <point x="633.0" y="417.0"/>
      <point x="633.0" y="773.0" type="curve" smooth="yes"/>
      <point x="633.0" y="1045.0"/>
      <point x="725.0" y="1140.0"/>
      <point x="900.0" y="1140.0" type="curve" smooth="yes"/>
      <point x="1096.0" y="1140.0"/>
      <point x="1164.0" y="998.0"/>
      <point x="1164.0" y="642.0" type="curve" smooth="yes"/>
      <point x="1164.0" y="370.0"/>
      <point x="1072.0" y="275.0"/>
    </contour>
    <contour>
      <point x="980.0" y="-76.0" type="curve" smooth="yes"/>
      <point x="1108.0" y="97.0" type="line"/>
      <point x="999.0" y="97.0" type="line"/>
      <point x="860.0" y="-30.0" type="line" smooth="yes"/>
      <point x="716.0" y="-161.0"/>
      <point x="695.0" y="-218.0"/>
      <point x="695.0" y="-291.0" type="curve" smooth="yes"/>
      <point x="695.0" y="-403.0"/>
      <point x="752.0" y="-465.0"/>
      <point x="895.0" y="-465.0" type="curve" smooth="yes"/>
      <point x="969.0" y="-465.0"/>
      <point x="1019.0" y="-447.0"/>
      <point x="1111.0" y="-387.0" type="curve"/>
      <point x="1111.0" y="-277.0" type="line"/>
      <point x="1057.0" y="-299.0"/>
      <point x="1030.0" y="-303.0"/>
      <point x="988.0" y="-303.0" type="curve" smooth="yes"/>
      <point x="937.0" y="-303.0"/>
      <point x="907.0" y="-281.0"/>
      <point x="907.0" y="-228.0" type="curve" smooth="yes"/>
      <point x="907.0" y="-185.0"/>
      <point x="920.0" y="-157.0"/>
    </contour>
  </outline>
</glyph>
<glyph name="uni01EB" format="2">
  <advance width="1374.0"/>
  <unicode hex="01EB"/>
  <outline>
    <contour>
      <point x="682.0" y="240.0" type="curve" smooth="yes"/>
      <point x="576.0" y="240.0"/>
      <point x="538.0" y="317.0"/>
      <point x="538.0" y="540.0" type="curve" smooth="yes"/>
      <point x="538.0" y="736.0"/>
      <point x="578.0" y="804.0"/>
      <point x="692.0" y="804.0" type="curve" smooth="yes"/>
      <point x="798.0" y="804.0"/>
      <point x="836.0" y="727.0"/>
      <point x="836.0" y="504.0" type="curve" smooth="yes"/>
      <point x="836.0" y="308.0"/>
      <point x="796.0" y="240.0"/>
    </contour>
    <contour>
      <point x="667.0" y="-30.0" type="curve" smooth="yes"/>
      <point x="1069.0" y="-30.0"/>
      <point x="1298.0" y="173.0"/>
      <point x="1298.0" y="529.0" type="curve" smooth="yes"/>
      <point x="1298.0" y="876.0"/>
      <point x="1083.0" y="1074.0"/>
      <point x="707.0" y="1074.0" type="curve" smooth="yes"/>
      <point x="305.0" y="1074.0"/>
      <point x="76.0" y="871.0"/>
      <point x="76.0" y="515.0" type="curve" smooth="yes"/>
      <point x="76.0" y="168.0"/>
      <point x="291.0" y="-30.0"/>
    </contour>
    <contour>
      <point x="780.0" y="-76.0" type="curve" smooth="yes"/>
      <point x="908.0" y="97.0" type="line"/>
      <point x="799.0" y="97.0" type="line"/>
      <point x="660.0" y="-30.0" type="line" smooth="yes"/>
      <point x="516.0" y="-161.0"/>
      <point x="495.0" y="-218.0"/>
      <point x="495.0" y="-291.0" type="curve" smooth="yes"/>
      <point x="495.0" y="-403.0"/>
      <point x="552.0" y="-465.0"/>
      <point x="695.0" y="-465.0" type="curve" smooth="yes"/>
      <point x="769.0" y="-465.0"/>
      <point x="819.0" y="-447.0"/>
      <point x="911.0" y="-387.0" type="curve"/>
      <point x="911.0" y="-277.0" type="line"/>
      <point x="857.0" y="-299.0"/>
      <point x="830.0" y="-303.0"/>
      <point x="788.0" y="-303.0" type="curve" smooth="yes"/>
      <point x="737.0" y="-303.0"/>
      <point x="707.0" y="-281.0"/>
      <point x="707.0" y="-229.0" type="curve" smooth="yes"/>
      <point x="707.0" y="-185.0"/>
      <point x="720.0" y="-157.0"/>
    </contour>
  </outline>
</glyph>
<glyph name="acutecomb" format="2">
  <unicode hex="0301"/>
  <anchor x="0" y="1044.0" name="_top"/>
  <anchor x="0" y="1535" name="top"/>
  <outline>
    <contour>
      <point x="-123.0" y="1138.0" type="line"/>
      <point x="89.0" y="1138.0" type="line"/>
      <point x="460.0" y="1390.0" type="line"/>
      <point x="460.0" y="1464.0" type="line"/>
      <point x="30.0" y="1464.0" type="line"/>
    </contour>
  </outline>
</glyph>
<glyph name="uni0304" format="2">
  <unicode hex="0304"/>
  <anchor x="0" y="1044.0" name="_top"/>
  <anchor x="0" y="1464.0" name="top"/>
  <outline>
    <contour>
      <point x="-355.0" y="1209.0" type="line"/>
      <point x="355.0" y="1209.0" type="line"/>
      <point x="355.0" y="1394.0" type="line"/>
      <point x="-355.0" y="1394.0" type="line"/>
    </contour>
  </outline>
</glyph>
<glyph name="uni0306" format="2">
  <unicode hex="0306"/>
  <anchor x="0" y="1044.0" name="_top"/>
  <anchor x="0" y="1464.0" name="top"/>
  <outline>
    <contour>
      <point x="0.0" y="1365.0" type="curve" smooth="yes"/>
      <point x="-114.0" y="1365.0"/>
      <point x="-159.0" y="1392.0"/>
      <point x="-182.0" y="1464.0" type="curve"/>
      <point x="-366.0" y="1464.0" type="line"/>
      <point x="-337.0" y="1209.0"/>
      <point x="-233.0" y="1138.0"/>
      <point x="0.0" y="1138.0" type="curve" smooth="yes"/>
      <point x="233.0" y="1138.0"/>
      <point x="337.0" y="1209.0"/>
      <point x="366.0" y="1464.0" type="curve"/>
      <point x="182.0" y="1464.0" type="line"/>
      <point x="159.0" y="1392.0"/>
      <point x="114.0" y="1365.0"/>
    </contour>
  </outline>
</glyph>
<glyph name="uni0307" format="2">
  <unicode hex="0307"/>
  <anchor x="0" y="1044.0" name="_top"/>
  <anchor x="0" y="1387.0" name="top"/>
  <anchor x="0" y="1301.0" name="_mid"/>
  <outline>
    <contour>
      <point x="0.0" y="1144.0" type="curve" smooth="yes"/>
      <point x="155.0" y="1144.0"/>
      <point x="222.0" y="1199.0"/>
      <point x="222.0" y="1304.0" type="curve" smooth="yes"/>
      <point x="222.0" y="1408.0"/>
      <point x="155.0" y="1458.0"/>
      <point x="0.0" y="1458.0" type="curve" smooth="yes"/>
      <point x="-155.0" y="1458.0"/>
      <point x="-222.0" y="1408.0"/>
      <point x="-222.0" y="1304.0" type="curve" smooth="yes"/>
      <point x="-222.0" y="1199.0"/>
      <point x="-155.0" y="1144.0"/>
    </contour>
  </outline>
</glyph>
<glyph name="hookabovecomb" format="2">
  <unicode hex="0309"/>
  <anchor x="0" y="1044.0" name="_top"/>
  <anchor x="0" y="1464.0" name="top"/>
  <outline>
    <contour>
      <point x="-219.0" y="1325.0" type="line"/>
      <point x="8.0" y="1334.0"/>
      <point x="31.0" y="1316.0"/>
      <point x="31.0" y="1283.0" type="curve" smooth="yes"/>
      <point x="31.0" y="1252.0"/>
      <point x="17.0" y="1239.0"/>
      <point x="-109.0" y="1224.0" type="curve"/>
      <point x="-91.0" y="1119.0" type="line"/>
      <point x="205.0" y="1156.0"/>
      <point x="278.0" y="1244.0"/>
      <point x="278.0" y="1351.0" type="curve" smooth="yes"/>
      <point x="278.0" y="1471.0"/>
      <point x="217.0" y="1528.0"/>
      <point x="-216.0" y="1524.0" type="curve"/>
    </contour>
  </outline>
</glyph>
<glyph name="dotbelowcomb" format="2">
  <unicode hex="0323"/>
  <anchor x="0" y="0" name="_bottom"/>
  <anchor x="0" y="-465.0" name="bottom"/>
  <outline>
    <contour>
      <point x="0.0" y="-374.0" type="curve" smooth="yes"/>
      <point x="155.0" y="-374.0"/>
      <point x="222.0" y="-319.0"/>
      <point x="222.0" y="-214.0" type="curve" smooth="yes"/>
      <point x="222.0" y="-110.0"/>
      <point x="155.0" y="-60.0"/>
      <point x="0.0" y="-60.0" type="curve" smooth="yes"/>
      <point x="-155.0" y="-60.0"/>
      <point x="-222.0" y="-110.0"/>
      <point x="-222.0" y="-214.0" type="curve" smooth="yes"/>
      <point x="-222.0" y="-319.0"/>
      <point x="-155.0" y="-374.0"/>
    </contour>
  </outline>
</glyph>
<glyph name="dagger" format="2">
  <advance width="953.0"/>
  <unicode hex="2020"/>
  <guideline x="492.0" y="1166" angle="0" identifier="PyynVJa4Rt"/>
  <outline>
    <contour>
      <point x="477.0" y="1265.0" type="line"/>
      <point x="108.0" y="1301.0" type="line"/>
      <point x="108.0" y="1021.0" type="line"/>
      <point x="477.0" y="1057.0" type="line"/>
      <point x="845.0" y="1021.0" type="line"/>
      <point x="845.0" y="1301.0" type="line"/>
    </contour>
    <contour>
      <point x="363.0" y="1166.0" type="line"/>
      <point x="304.0" y="892.0" type="line"/>
      <point x="379.0" y="627.0" type="line"/>
      <point x="568.0" y="627.0" type="line"/>
      <point x="651.0" y="892.0" type="line"/>
      <point x="592.0" y="1166.0" type="line"/>
      <point x="652.0" y="1464.0" type="line"/>
      <point x="303.0" y="1464.0" type="line"/>
    </contour>
  </outline>
</glyph>
<glyph name="bullet" format="2">
  <advance width="1070"/>
  <unicode hex="2022"/>
  <outline>
    <contour>
      <point x="535.0" y="896.0" type="curve" smooth="yes"/>
      <point x="302.0" y="896.0"/>
      <point x="153.0" y="750.0"/>
      <point x="153.0" y="521.0" type="curve" smooth="yes"/>
      <point x="153.0" y="292.0"/>
      <point x="302.0" y="146.0"/>
      <point x="535.0" y="146.0" type="curve" smooth="yes"/>
      <point x="768.0" y="146.0"/>
      <point x="917.0" y="292.0"/>
      <point x="917.0" y="521.0" type="curve" smooth="yes"/>
      <point x="917.0" y="750.0"/>
      <point x="768.0" y="896.0"/>
    </contour>
  </outline>
</glyph>
<glyph name="guilsinglright" format="2">
  <advance width="869.0"/>
  <unicode hex="203A"/>
  <outline>
    <contour>
      <point x="362.0" y="462.0" type="line"/>
      <point x="362.0" y="582.0" type="line"/>
      <point x="88.0" y="137.0" type="line"/>
      <point x="272.0" y="-30.0" type="line"/>
      <point x="770.0" y="382.0" type="line"/>
      <point x="770.0" y="662.0" type="line"/>
      <point x="272.0" y="1074.0" type="line"/>
      <point x="88.0" y="907.0" type="line"/>
    </contour>
  </outline>
</glyph>
<glyph name="uni20A6" format="2">
  <advance width="1550.0"/>
  <unicode hex="20A6"/>
  <outline>
    <contour>
      <point x="1542.0" y="626.0" type="line"/>
      <point x="13.0" y="626.0" type="line"/>
      <point x="13.0" y="451.0" type="line"/>
      <point x="1542.0" y="451.0" type="line"/>
    </contour>
    <contour>
      <point x="1542.0" y="986.0" type="line"/>
      <point x="13.0" y="986.0" type="line"/>
      <point x="13.0" y="811.0" type="line"/>
      <point x="1542.0" y="811.0" type="line"/>
    </contour>
    <contour>
      <point x="1212.0" y="310.0" type="line"/>
      <point x="759.0" y="1414.0" type="line"/>
      <point x="68.0" y="1414.0" type="line"/>
      <point x="68.0" y="1278.0" type="line"/>
      <point x="212.0" y="1211.0" type="line"/>
      <point x="212.0" y="183.0" type="line"/>
      <point x="83.0" y="136.0" type="line"/>
      <point x="83.0" y="0.0" type="line"/>
      <point x="579.0" y="0.0" type="line"/>
      <point x="579.0" y="136.0" type="line"/>
      <point x="450.0" y="183.0" type="line"/>
      <point x="450.0" y="1298.0" type="line"/>
      <point x="332.0" y="1260.0" type="line"/>
      <point x="845.0" y="0.0" type="line"/>
      <point x="1359.0" y="0.0" type="line"/>
      <point x="1359.0" y="1231.0" type="line"/>
      <point x="1487.0" y="1278.0" type="line"/>
      <point x="1487.0" y="1414.0" type="line"/>
      <point x="993.0" y="1414.0" type="line"/>
      <point x="993.0" y="1278.0" type="line"/>
      <point x="1121.0" y="1231.0" type="line"/>
      <point x="1121.0" y="242.0" type="line"/>
    </contour>
  </outline>
</glyph>
<glyph name="uni20A9" format="2">
  <advance width="1550.0"/>
  <unicode hex="20A9"/>
  <outline>
    <contour>
      <point x="1588.0" y="626.0" type="line"/>
      <point x="-36.0" y="626.0" type="line"/>
      <point x="-36.0" y="451.0" type="line"/>
      <point x="1588.0" y="451.0" type="line"/>
    </contour>
    <contour>
      <point x="1588.0" y="986.0" type="line"/>
      <point x="-36.0" y="986.0" type="line"/>
      <point x="-36.0" y="811.0" type="line"/>
      <point x="1588.0" y="811.0" type="line"/>
    </contour>
    <contour>
      <point x="747.0" y="1034.0" type="line"/>
      <point x="905.0" y="0.0" type="line"/>
      <point x="1351.0" y="0.0" type="line"/>
      <point x="1478.0" y="1248.0" type="line"/>
      <point x="1584.0" y="1278.0" type="line"/>
      <point x="1584.0" y="1414.0" type="line"/>
      <point x="1208.0" y="1414.0" type="line"/>
      <point x="1208.0" y="1278.0" type="line"/>
      <point x="1267.0" y="1242.0" type="line"/>
      <point x="1199.0" y="113.0" type="line"/>
      <point x="1268.0" y="153.0" type="line"/>
      <point x="1076.0" y="1414.0" type="line"/>
      <point x="720.0" y="1414.0" type="line"/>
      <point x="459.0" y="139.0" type="line"/>
      <point x="549.0" y="158.0" type="line"/>
      <point x="494.0" y="1248.0" type="line"/>
      <point x="558.0" y="1278.0" type="line"/>
      <point x="558.0" y="1414.0" type="line"/>
      <point x="-36.0" y="1414.0" type="line"/>
      <point x="-36.0" y="1278.0" type="line"/>
      <point x="74.0" y="1228.0" type="line"/>
      <point x="180.0" y="0.0" type="line"/>
      <point x="633.0" y="0.0" type="line"/>
      <point x="835.0" y="1034.0" type="line"/>
    </contour>
  </outline>
</glyph>
<glyph name="minus" format="2">
  <advance width="1140.0"/>
  <unicode hex="2212"/>
  <outline>
    <contour>
      <point x="110.0" y="656.0" type="line"/>
      <point x="110.0" y="388.0" type="line"/>
      <point x="1030.0" y="388.0" type="line"/>
      <point x="1030.0" y="656.0" type="line"/>
    </contour>
  </outline>
</glyph>
<glyph name="Euro.lf" format="2">
  <advance width="1724"/>
  <outline>
    <contour>
      <point x="1258.0" y="626.0" type="line"/>
      <point x="107.0" y="626.0" type="line"/>
      <point x="107.0" y="451.0" type="line"/>
      <point x="1258.0" y="451.0" type="line"/>
    </contour>
    <contour>
      <point x="1258.0" y="986.0" type="line"/>
      <point x="107.0" y="986.0" type="line"/>
      <point x="107.0" y="811.0" type="line"/>
      <point x="1258.0" y="811.0" type="line"/>
    </contour>
    <contour>
      <point x="1113.0" y="1216.0" type="curve" smooth="yes"/>
      <point x="1306.0" y="1216.0"/>
      <point x="1402.0" y="1030.0"/>
      <point x="1457.0" y="1030.0" type="curve" smooth="yes"/>
      <point x="1549.0" y="1030.0"/>
      <point x="1622.0" y="1112.0"/>
      <point x="1622.0" y="1214.0" type="curve" smooth="yes"/>
      <point x="1622.0" y="1367.0"/>
      <point x="1450.0" y="1444.0"/>
      <point x="1106.0" y="1444.0" type="curve" smooth="yes"/>
      <point x="602.0" y="1444.0"/>
      <point x="327.0" y="1179.0"/>
      <point x="327.0" y="694.0" type="curve" smooth="yes"/>
      <point x="327.0" y="197.0"/>
      <point x="571.0" y="-30.0"/>
      <point x="1106.0" y="-30.0" type="curve" smooth="yes"/>
      <point x="1447.0" y="-30.0"/>
      <point x="1622.0" y="50.0"/>
      <point x="1622.0" y="200.0" type="curve" smooth="yes"/>
      <point x="1622.0" y="302.0"/>
      <point x="1548.0" y="384.0"/>
      <point x="1456.0" y="384.0" type="curve" smooth="yes"/>
      <point x="1401.0" y="384.0"/>
      <point x="1306.0" y="198.0"/>
      <point x="1113.0" y="198.0" type="curve" smooth="yes"/>
      <point x="915.0" y="198.0"/>
      <point x="837.0" y="283.0"/>
      <point x="837.0" y="729.0" type="curve" smooth="yes"/>
      <point x="837.0" y="1139.0"/>
      <point x="890.0" y="1216.0"/>
    </contour>
  </outline>
</glyph>
<glyph name="caroncomb.alt" format="2">
  <anchor x="0" y="1464.0" name="_right"/>
  <outline>
    <contour>
      <point x="104.0" y="1044.0" type="line"/>
      <point x="312.0" y="1044.0" type="line"/>
      <point x="504.0" y="1404.0" type="line"/>
      <point x="504.0" y="1464.0" type="line"/>
      <point x="152.0" y="1464.0" type="line"/>
    </contour>
  </outline>
</glyph>
<glyph name="franc.lf" format="2">
  <advance width="1604.0"/>
  <outline>
    <contour>
      <point x="1394.0" y="1512.0" type="line"/>
      <point x="1263.0" y="1414.0" type="line"/>
      <point x="548.0" y="1414.0" type="line"/>
      <point x="548.0" y="1157.0" type="line"/>
      <point x="1333.0" y="1157.0" type="line"/>
      <point x="1180.0" y="1328.0" type="line"/>
      <point x="1332.0" y="918.0" type="line"/>
      <point x="1536.0" y="918.0" type="line"/>
      <point x="1536.0" y="1512.0" type="line"/>
    </contour>
    <contour>
      <point x="1163.0" y="596.0" type="line"/>
      <point x="115.0" y="596.0" type="line"/>
      <point x="115.0" y="421.0" type="line"/>
      <point x="1163.0" y="421.0" type="line"/>
    </contour>
    <contour>
      <point x="1163.0" y="956.0" type="line"/>
      <point x="115.0" y="956.0" type="line"/>
      <point x="115.0" y="781.0" type="line"/>
      <point x="1163.0" y="781.0" type="line"/>
    </contour>
    <contour>
      <point x="158.0" y="1414.0" type="line"/>
      <point x="158.0" y="1278.0" type="line"/>
      <point x="316.0" y="1229.0" type="line"/>
      <point x="316.0" y="184.0" type="line"/>
      <point x="158.0" y="135.0" type="line"/>
      <point x="158.0" y="0.0" type="line"/>
      <point x="999.0" y="0.0" type="line"/>
      <point x="999.0" y="135.0" type="line"/>
      <point x="841.0" y="184.0" type="line"/>
      <point x="841.0" y="1414.0" type="line"/>
    </contour>
  </outline>
</glyph>
<glyph name="hookabovecomb.case" format="2">
  <anchor x="0" y="1414.0" name="_UCtop"/>
  <anchor x="0" y="1870.0" name="UCtop"/>
  <outline>
    <contour>
      <point x="-219.0" y="1731.0" type="line"/>
      <point x="8.0" y="1740.0"/>
      <point x="31.0" y="1722.0"/>
      <point x="31.0" y="1689.0" type="curve" smooth="yes"/>
      <point x="31.0" y="1658.0"/>
      <point x="17.0" y="1645.0"/>
      <point x="-109.0" y="1630.0" type="curve"/>
      <point x="-91.0" y="1525.0" type="line"/>
      <point x="205.0" y="1562.0"/>
      <point x="278.0" y="1650.0"/>
      <point x="278.0" y="1757.0" type="curve" smooth="yes"/>
      <point x="278.0" y="1877.0"/>
      <point x="217.0" y="1934.0"/>
      <point x="-216.0" y="1930.0" type="curve"/>
    </contour>
  </outline>
</glyph>
<glyph name="seven.lf" format="2">
  <advance width="1348.0"/>
  <outline>
    <contour>
      <point x="114.0" y="996.0" type="line"/>
      <point x="1111.0" y="996.0" type="line"/>
      <point x="1116.0" y="1283.0" type="line"/>
      <point x="340.0" y="0.0" type="line"/>
      <point x="847.0" y="0.0" type="line"/>
      <point x="1348.0" y="1372.0" type="line"/>
      <point x="1348.0" y="1414.0" type="line"/>
      <point x="417.0" y="1414.0" type="line"/>
      <point x="297.0" y="1510.0" type="line"/>
      <point x="172.0" y="1510.0" type="line"/>
      <point x="43.0" y="749.0" type="line"/>
      <point x="241.0" y="749.0" type="line"/>
      <point x="582.0" y="1214.0" type="line"/>
    </contour>
  </outline>
</glyph>
<glyph name="sterling.lf" format="2">
  <advance width="1580"/>
  <outline>
    <contour>
      <point x="1235.0" y="885.0" type="curve"/>
      <point x="1475.0" y="972.0" type="line"/>
      <point x="1392.0" y="1284.0"/>
      <point x="1244.0" y="1444.0"/>
      <point x="890.0" y="1444.0" type="curve" smooth="yes"/>
      <point x="469.0" y="1444.0"/>
      <point x="245.0" y="1281.0"/>
      <point x="236.0" y="1030.0" type="curve" smooth="yes"/>
      <point x="225.0" y="738.0"/>
      <point x="435.0" y="672.0"/>
      <point x="435.0" y="475.0" type="curve" smooth="yes"/>
      <point x="435.0" y="374.0"/>
      <point x="360.0" y="287.0"/>
      <point x="201.0" y="203.0" type="curve"/>
      <point x="201.0" y="0.0" type="line"/>
      <point x="1118.0" y="0.0" type="line"/>
      <point x="1194.0" y="-78.0" type="line"/>
      <point x="1356.0" y="-78.0" type="line"/>
      <point x="1490.0" y="572.0" type="line"/>
      <point x="1323.0" y="572.0" type="line"/>
      <point x="985.0" y="226.0" type="line"/>
      <point x="1410.0" y="450.0" type="line"/>
      <point x="503.0" y="450.0" type="line"/>
      <point x="448.0" y="337.0" type="line"/>
      <point x="700.0" y="479.0"/>
      <point x="808.0" y="584.0"/>
      <point x="808.0" y="690.0" type="curve" smooth="yes"/>
      <point x="808.0" y="755.5801526717557"/>
      <point x="783.0" y="818.0"/>
      <point x="783.0" y="901.0" type="curve" smooth="yes"/>
      <point x="783.0" y="1011.0"/>
      <point x="842.0" y="1070.0"/>
      <point x="987.0" y="1070.0" type="curve" smooth="yes"/>
      <point x="1132.0" y="1070.0"/>
      <point x="1194.0" y="1012.0"/>
    </contour>
    <contour>
      <point x="1121.0" y="797.0" type="line"/>
      <point x="79.0" y="797.0" type="line"/>
      <point x="79.0" y="622.0" type="line"/>
      <point x="1121.0" y="622.0" type="line"/>
    </contour>
  </outline>
</glyph>
<glyph name="three.lf" format="2">
  <advance width="1396.0"/>
  <outline>
    <contour>
      <point x="524.0" y="566.0" type="line"/>
      <point x="591.0" y="571.0" type="line" smooth="yes"/>
      <point x="798.0" y="586.0"/>
      <point x="863.0" y="526.0"/>
      <point x="863.0" y="401.0" type="curve" smooth="yes"/>
      <point x="863.0" y="279.0"/>
      <point x="770.0" y="198.0"/>
      <point x="594.0" y="198.0" type="curve" smooth="yes"/>
      <point x="393.0" y="198.0"/>
      <point x="293.0" y="384.0"/>
      <point x="237.0" y="384.0" type="curve" smooth="yes"/>
      <point x="149.0" y="384.0"/>
      <point x="66.0" y="310.0"/>
      <point x="66.0" y="200.0" type="curve" smooth="yes"/>
      <point x="66.0" y="54.0"/>
      <point x="171.0" y="-30.0"/>
      <point x="543.0" y="-30.0" type="curve" smooth="yes"/>
      <point x="1017.0" y="-30.0"/>
      <point x="1308.0" y="174.0"/>
      <point x="1308.0" y="470.0" type="curve" smooth="yes"/>
      <point x="1308.0" y="684.0"/>
      <point x="1167.0" y="832.0"/>
      <point x="892.0" y="832.0" type="curve"/>
      <point x="851.0" y="806.0" type="line"/>
      <point x="1132.0" y="823.0"/>
      <point x="1241.0" y="947.0"/>
      <point x="1241.0" y="1118.0" type="curve" smooth="yes"/>
      <point x="1241.0" y="1283.0"/>
      <point x="1141.0" y="1444.0"/>
      <point x="747.0" y="1444.0" type="curve" smooth="yes"/>
      <point x="365.0" y="1444.0"/>
      <point x="193.0" y="1282.0"/>
      <point x="102.0" y="992.0" type="curve"/>
      <point x="329.0" y="913.0" type="line"/>
      <point x="380.0" y="1061.0"/>
      <point x="466.0" y="1118.0"/>
      <point x="618.0" y="1118.0" type="curve" smooth="yes"/>
      <point x="774.0" y="1118.0"/>
      <point x="831.0" y="1060.0"/>
      <point x="831.0" y="973.0" type="curve" smooth="yes"/>
      <point x="831.0" y="854.0"/>
      <point x="793.0" y="806.0"/>
      <point x="510.0" y="795.0" type="curve"/>
    </contour>
  </outline>
</glyph>
<glyph name="two.lf" format="2">
  <advance width="1471"/>
  <outline>
    <contour>
      <point x="907.0" y="226.0" type="line"/>
      <point x="1330.0" y="450.0" type="line"/>
      <point x="472.0" y="450.0" type="line"/>
      <point x="286.0" y="276.0" type="line"/>
      <point x="671.0" y="454.0" type="line" smooth="yes"/>
      <point x="1159.0" y="680.0"/>
      <point x="1275.0" y="813.0"/>
      <point x="1275.0" y="1034.0" type="curve" smooth="yes"/>
      <point x="1275.0" y="1294.0"/>
      <point x="1065.0" y="1444.0"/>
      <point x="761.0" y="1444.0" type="curve" smooth="yes"/>
      <point x="374.0" y="1444.0"/>
      <point x="130.0" y="1272.0"/>
      <point x="48.0" y="857.0" type="curve"/>
      <point x="292.0" y="810.0" type="line"/>
      <point x="339.0" y="983.0"/>
      <point x="408.0" y="1053.0"/>
      <point x="533.0" y="1053.0" type="curve" smooth="yes"/>
      <point x="677.0" y="1053.0"/>
      <point x="732.0" y="978.0"/>
      <point x="732.0" y="857.0" type="curve" smooth="yes"/>
      <point x="732.0" y="743.0"/>
      <point x="691.0" y="649.0"/>
      <point x="492.0" y="485.0" type="curve" smooth="yes"/>
      <point x="150.0" y="204.0" type="line"/>
      <point x="150.0" y="0.0" type="line"/>
      <point x="1046.0" y="0.0" type="line"/>
      <point x="1120.0" y="-78.0" type="line"/>
      <point x="1278.0" y="-78.0" type="line"/>
      <point x="1408.0" y="572.0" type="line"/>
      <point x="1236.0" y="572.0" type="line"/>
    </contour>
  </outline>
</glyph>
<glyph name="uni0302_acutecomb" format="2">
  <anchor x="0" y="1044.0" name="_top"/>
  <outline>
    <contour>
      <point x="350.0" y="1335.0" type="line"/>
      <point x="573.0" y="1335.0" type="line"/>
      <point x="843.0" y="1537.0" type="line"/>
      <point x="843.0" y="1602.0" type="line"/>
      <point x="447.0" y="1602.0" type="line"/>
    </contour>
    <contour>
      <point x="-44.0" y="1295.0" type="line"/>
      <point x="146.0" y="1138.0" type="line"/>
      <point x="422.0" y="1138.0" type="line"/>
      <point x="162.0" y="1464.0" type="line"/>
      <point x="-162.0" y="1464.0" type="line"/>
      <point x="-422.0" y="1138.0" type="line"/>
      <point x="-146.0" y="1138.0" type="line"/>
      <point x="44.0" y="1295.0" type="line"/>
    </contour>
  </outline>
</glyph>
<glyph name="uni0302_hookabovecomb.case" format="2">
  <anchor x="0" y="1414.0" name="_UCtop"/>
  <outline>
    <contour>
      <point x="44.0" y="1701.0" type="line"/>
      <point x="-44.0" y="1701.0" type="line"/>
      <point x="146.0" y="1544.0" type="line"/>
      <point x="422.0" y="1544.0" type="line"/>
      <point x="162.0" y="1870.0" type="line"/>
      <point x="-162.0" y="1870.0" type="line"/>
      <point x="-422.0" y="1544.0" type="line"/>
      <point x="-146.0" y="1544.0" type="line"/>
    </contour>
    <contour>
      <point x="366.0" y="1817.0" type="curve"/>
      <point x="382.0" y="1704.0" type="line"/>
      <point x="652.0" y="1744.0"/>
      <point x="718.0" y="1838.0"/>
      <point x="718.0" y="1954.0" type="curve" smooth="yes"/>
      <point x="718.0" y="2083.0"/>
      <point x="657.0" y="2144.0"/>
      <point x="224.0" y="2140.0" type="curve"/>
      <point x="221.0" y="1941.0" type="line"/>
      <point x="448.0" y="1950.0"/>
      <point x="471.0" y="1916.0"/>
      <point x="471.0" y="1880.0" type="curve" smooth="yes"/>
      <point x="471.0" y="1847.0"/>
      <point x="455.0" y="1830.0"/>
    </contour>
  </outline>
</glyph>
<glyph name="uni0306_gravecomb.case" format="2">
  <anchor x="0" y="1414.0" name="_UCtop"/>
  <outline>
    <contour>
      <point x="73.0" y="1721.0" type="line"/>
      <point x="-23.0" y="2004.0" type="line"/>
      <point x="-323.0" y="2004.0" type="line"/>
      <point x="-323.0" y="1961.0" type="line"/>
      <point x="-77.0" y="1721.0" type="line"/>
    </contour>
    <contour>
      <point x="0.0" y="1668.0" type="curve" smooth="yes"/>
      <point x="-116.0" y="1668.0"/>
      <point x="-166.0" y="1687.0"/>
      <point x="-182.0" y="1742.0" type="curve"/>
      <point x="-364.0" y="1742.0" type="line"/>
      <point x="-333.0" y="1556.0"/>
      <point x="-218.0" y="1515.0"/>
      <point x="0.0" y="1515.0" type="curve" smooth="yes"/>
      <point x="218.0" y="1515.0"/>
      <point x="333.0" y="1556.0"/>
      <point x="364.0" y="1742.0" type="curve"/>
      <point x="182.0" y="1742.0" type="line"/>
      <point x="166.0" y="1686.0"/>
      <point x="116.0" y="1668.0"/>
    </contour>
  </outline>
</glyph>
<glyph name="uni0306_hookabovecomb" format="2">
  <anchor x="0" y="1044.0" name="_top"/>
  <outline>
    <contour>
      <point x="-52.0" y="1313.0" type="line"/>
      <point x="147.0" y="1329.0"/>
      <point x="219.0" y="1378.0"/>
      <point x="219.0" y="1491.0" type="curve" smooth="yes"/>
      <point x="219.0" y="1596.0"/>
      <point x="128.0" y="1647.0"/>
      <point x="-119.0" y="1650.0" type="curve"/>
      <point x="-129.0" y="1496.0" type="line"/>
      <point x="43.0" y="1495.0"/>
      <point x="62.0" y="1488.0"/>
      <point x="62.0" y="1460.0" type="curve" smooth="yes"/>
      <point x="62.0" y="1436.0"/>
      <point x="39.0" y="1427.0"/>
      <point x="-66.0" y="1418.0" type="curve"/>
    </contour>
    <contour>
      <point x="0.0" y="1262.0" type="curve" smooth="yes"/>
      <point x="-116.0" y="1262.0"/>
      <point x="-166.0" y="1280.0"/>
      <point x="-182.0" y="1336.0" type="curve"/>
      <point x="-364.0" y="1336.0" type="line"/>
      <point x="-333.0" y="1150.0"/>
      <point x="-218.0" y="1109.0"/>
      <point x="0.0" y="1109.0" type="curve" smooth="yes"/>
      <point x="218.0" y="1109.0"/>
      <point x="333.0" y="1150.0"/>
      <point x="364.0" y="1336.0" type="curve"/>
      <point x="182.0" y="1336.0" type="line"/>
      <point x="166.0" y="1281.0"/>
      <point x="116.0" y="1262.0"/>
    </contour>
  </outline>
</glyph>
<glyph name="uni030A.case" format="2">
  <anchor x="0" y="1414.0" name="_UCtop"/>
  <anchor x="0" y="1870.0" name="UCtop"/>
  <outline>
    <contour>
      <point x="-4.0" y="1900.0" type="curve" smooth="yes"/>
      <point x="-114.0" y="1900.0"/>
      <point x="-194.0" y="1823.0"/>
      <point x="-194.0" y="1713.0" type="curve" smooth="yes"/>
      <point x="-194.0" y="1605.0"/>
      <point x="-114.0" y="1526.0"/>
      <point x="-4.0" y="1526.0" type="curve" smooth="yes"/>
      <point x="106.0" y="1526.0"/>
      <point x="186.0" y="1605.0"/>
      <point x="186.0" y="1713.0" type="curve" smooth="yes"/>
      <point x="186.0" y="1823.0"/>
      <point x="106.0" y="1900.0"/>
    </contour>
    <contour>
      <point x="-4.0" y="1609.0" type="curve" smooth="yes"/>
      <point x="-64.0" y="1609.0"/>
      <point x="-106.0" y="1653.0"/>
      <point x="-106.0" y="1713.0" type="curve" smooth="yes"/>
      <point x="-106.0" y="1778.0"/>
      <point x="-64.0" y="1822.0"/>
      <point x="-4.0" y="1822.0" type="curve" smooth="yes"/>
      <point x="56.0" y="1822.0"/>
      <point x="98.0" y="1778.0"/>
      <point x="98.0" y="1713.0" type="curve" smooth="yes"/>
      <point x="98.0" y="1653.0"/>
      <point x="56.0" y="1609.0"/>
    </contour>
  </outline>
</glyph>
<glyph name="uni030B.case" format="2">
  <anchor x="0" y="1414.0" name="_UCtop"/>
  <anchor x="0" y="1870.0" name="UCtop"/>
  <outline>
    <contour>
      <point x="71.0" y="1544.0" type="line"/>
      <point x="274.0" y="1544.0" type="line"/>
      <point x="622.0" y="1796.0" type="line"/>
      <point x="622.0" y="1870.0" type="line"/>
      <point x="220.0" y="1870.0" type="line"/>
    </contour>
    <contour>
      <point x="-326.0" y="1544.0" type="line"/>
      <point x="-130.0" y="1544.0" type="line"/>
      <point x="77.0" y="1807.0" type="line"/>
      <point x="77.0" y="1870.0" type="line"/>
      <point x="-297.0" y="1870.0" type="line"/>
    </contour>
  </outline>
</glyph>
<glyph name="uni0312.case" format="2">
  <anchor x="0" y="1414.0" name="_UCtop"/>
  <anchor x="0" y="1870.0" name="UCtop"/>
  <outline>
    <contour>
      <point x="159.0" y="1667.0" type="curve" smooth="yes"/>
      <point x="159.0" y="1685.0"/>
      <point x="43.0" y="1695.0"/>
      <point x="43.0" y="1759.0" type="curve" smooth="yes"/>
      <point x="43.0" y="1799.0"/>
      <point x="61.0" y="1813.0"/>
      <point x="148.0" y="1821.0" type="curve"/>
      <point x="134.0" y="1925.0" type="line"/>
      <point x="-102.0" y="1902.0"/>
      <point x="-156.0" y="1802.0"/>
      <point x="-156.0" y="1699.0" type="curve" smooth="yes"/>
      <point x="-156.0" y="1574.0"/>
      <point x="-102.0" y="1533.0"/>
      <point x="-2.0" y="1533.0" type="curve" smooth="yes"/>
      <point x="116.0" y="1533.0"/>
      <point x="159.0" y="1580.0"/>
    </contour>
  </outline>
</glyph>
<glyph name="uni20AD.lf" format="2">
  <advance width="1765.0"/>
  <outline>
    <contour>
      <point x="840.0" y="639.0" type="line"/>
      <point x="1132.0" y="0.0" type="line"/>
      <point x="1690.0" y="0.0" type="line"/>
      <point x="1690.0" y="136.0" type="line"/>
      <point x="1553.0" y="199.0" type="line"/>
      <point x="1153.0" y="1014.0" type="line"/>
      <point x="1062.0" y="701.0" type="line"/>
      <point x="1495.0" y="1225.0" type="line"/>
      <point x="1629.0" y="1278.0" type="line"/>
      <point x="1629.0" y="1414.0" type="line"/>
      <point x="1138.0" y="1414.0" type="line"/>
      <point x="1138.0" y="1278.0" type="line"/>
      <point x="1249.0" y="1248.0" type="line"/>
      <point x="888.0" y="814.0" type="line"/>
    </contour>
    <contour>
      <point x="1625.0" y="814.0" type="line"/>
      <point x="93.0" y="814.0" type="line"/>
      <point x="93.0" y="639.0" type="line"/>
      <point x="1625.0" y="639.0" type="line"/>
    </contour>
    <contour>
      <point x="802.0" y="1229.0" type="line"/>
      <point x="960.0" y="1278.0" type="line"/>
      <point x="960.0" y="1414.0" type="line"/>
      <point x="136.0" y="1414.0" type="line"/>
      <point x="136.0" y="1278.0" type="line"/>
      <point x="294.0" y="1229.0" type="line"/>
      <point x="294.0" y="185.0" type="line"/>
      <point x="136.0" y="136.0" type="line"/>
      <point x="136.0" y="0.0" type="line"/>
      <point x="960.0" y="0.0" type="line"/>
      <point x="960.0" y="136.0" type="line"/>
      <point x="802.0" y="185.0" type="line"/>
    </contour>
  </outline>
</glyph>
<glyph name="uni20B2.lf" format="2">
  <advance width="1547.0"/>
  <outline>
    <contour>
      <point x="790.0" y="-237.0" type="line"/>
      <point x="984.0" y="-237.0" type="line"/>
      <point x="984.0" y="1650.0" type="line"/>
      <point x="790.0" y="1650.0" type="line"/>
    </contour>
    <contour>
      <point x="870.0" y="1196.0" type="curve" smooth="yes"/>
      <point x="1047.0" y="1196.0"/>
      <point x="1147.0" y="1013.0"/>
      <point x="1205.0" y="1013.0" type="curve" smooth="yes"/>
      <point x="1318.0" y="1013.0"/>
      <point x="1407.0" y="1096.0"/>
      <point x="1407.0" y="1206.0" type="curve" smooth="yes"/>
      <point x="1407.0" y="1378.0"/>
      <point x="1255.0" y="1444.0"/>
      <point x="879.0" y="1444.0" type="curve" smooth="yes"/>
      <point x="384.0" y="1444.0"/>
      <point x="113.0" y="1148.0"/>
      <point x="113.0" y="664.0" type="curve" smooth="yes"/>
      <point x="113.0" y="187.0"/>
      <point x="344.2496662216288" y="-30.0"/>
      <point x="862.0" y="-30.0" type="curve" smooth="yes"/>
      <point x="1077.0" y="-30.0"/>
      <point x="1252.0" y="16.0"/>
      <point x="1441.0" y="122.0" type="curve"/>
      <point x="1441.0" y="255.0" type="line"/>
      <point x="1343.0" y="255.0" type="line"/>
      <point x="1343.0" y="498.0" type="line"/>
      <point x="1436.0" y="557.0" type="line"/>
      <point x="1436.0" y="673.0" type="line"/>
      <point x="784.0" y="673.0" type="line"/>
      <point x="784.0" y="557.0" type="line"/>
      <point x="876.0" y="498.0" type="line"/>
      <point x="876.0" y="16.0" type="line"/>
      <point x="1207.0" y="306.0" type="line"/>
      <point x="1055.0" y="215.0"/>
      <point x="994.0" y="198.0"/>
      <point x="899.0" y="198.0" type="curve" smooth="yes"/>
      <point x="726.0675675675675" y="198.0"/>
      <point x="625.0" y="309.0"/>
      <point x="625.0" y="764.0" type="curve" smooth="yes"/>
      <point x="625.0" y="1094.0"/>
      <point x="690.0" y="1196.0"/>
    </contour>
  </outline>
</glyph>
<glyph name="uni20B9.lf" format="2">
  <advance width="1448"/>
  <outline>
    <contour>
      <point x="1347.0" y="1070.0" type="line"/>
      <point x="116.0" y="1070.0" type="line"/>
      <point x="116.0" y="895.0" type="line"/>
      <point x="1347.0" y="895.0" type="line"/>
    </contour>
    <contour>
      <point x="420.0" y="552.0" type="line" smooth="yes"/>
      <point x="562.0" y="552.0"/>
      <point x="597.0" y="528.0"/>
      <point x="613.0" y="415.0" type="curve" smooth="yes"/>
      <point x="644.0" y="195.0" type="line" smooth="yes"/>
      <point x="672.0" y="-5.0"/>
      <point x="800.0" y="-44.0"/>
      <point x="1290.0" y="0.0" type="curve"/>
      <point x="1290.0" y="188.0" type="line"/>
      <point x="1178.0" y="188.0"/>
      <point x="1159.0" y="206.0"/>
      <point x="1146.0" y="317.0" type="curve" smooth="yes"/>
      <point x="1132.0" y="434.0" type="line" smooth="yes"/>
      <point x="1112.0" y="598.0"/>
      <point x="1005.0" y="663.0"/>
      <point x="747.0" y="678.0" type="curve"/>
      <point x="747.0" y="663.0" type="line"/>
      <point x="997.0" y="676.0"/>
      <point x="1148.0" y="809.0"/>
      <point x="1148.0" y="973.0" type="curve" smooth="yes"/>
      <point x="1148.0" y="1158.0"/>
      <point x="1053.0" y="1284.0"/>
      <point x="691.0" y="1284.0" type="curve" smooth="yes"/>
      <point x="367.0" y="1284.0" type="line"/>
      <point x="367.0" y="1414.0" type="line"/>
      <point x="116.0" y="1414.0" type="line"/>
      <point x="116.0" y="1210.0" type="line"/>
      <point x="520.0" y="1210.0" type="line" smooth="yes"/>
      <point x="640.0" y="1210.0"/>
      <point x="679.0" y="1150.0"/>
      <point x="679.0" y="966.0" type="curve" smooth="yes"/>
      <point x="679.0" y="822.0"/>
      <point x="618.0" y="755.0"/>
      <point x="487.0" y="755.0" type="curve" smooth="yes"/>
      <point x="116.0" y="755.0" type="line"/>
      <point x="116.0" y="552.0" type="line"/>
    </contour>
    <contour>
      <point x="1347.0" y="1414.0" type="line"/>
      <point x="116.0" y="1414.0" type="line"/>
      <point x="116.0" y="1239.0" type="line"/>
      <point x="1347.0" y="1239.0" type="line"/>
    </contour>
  </outline>
</glyph>
<glyph name="zero.lf" format="2">
  <advance width="1635.0"/>
  <outline>
    <contour>
      <point x="819.0" y="263.0" type="curve" smooth="yes"/>
      <point x="690.0" y="263.0"/>
      <point x="625.0" y="328.0"/>
      <point x="625.0" y="764.0" type="curve" smooth="yes"/>
      <point x="625.0" y="1049.0"/>
      <point x="673.0" y="1151.0"/>
      <point x="812.0" y="1151.0" type="curve" smooth="yes"/>
      <point x="943.0" y="1151.0"/>
      <point x="1007.0" y="1086.0"/>
      <point x="1007.0" y="650.0" type="curve" smooth="yes"/>
      <point x="1007.0" y="365.0"/>
      <point x="961.0" y="263.0"/>
    </contour>
    <contour>
      <point x="834.0" y="1444.0" type="curve" smooth="yes"/>
      <point x="342.0" y="1444.0"/>
      <point x="96.0" y="1182.0"/>
      <point x="96.0" y="680.0" type="curve" smooth="yes"/>
      <point x="96.0" y="211.0"/>
      <point x="340.0" y="-30.0"/>
      <point x="800.0" y="-30.0" type="curve" smooth="yes"/>
      <point x="1290.0" y="-30.0"/>
      <point x="1539.0" y="232.0"/>
      <point x="1539.0" y="734.0" type="curve" smooth="yes"/>
      <point x="1539.0" y="1203.0"/>
      <point x="1292.0" y="1444.0"/>
    </contour>
  </outline>
</glyph>
